<?xml version="1.0" encoding="UTF-8"?>
<svg version="1.1" xmlns="http://www.w3.org/2000/svg" width="500" height="500">
<path d="M0 0 C2.68568063 0.00468409 5.37017225 -0.00898193 8.05566406 -0.04101562 C26.06168117 -0.24005045 42.69555732 1.1417267 60.1796875 5.50097656 C61.15874557 5.74018829 62.13780365 5.97940002 63.14653015 6.2258606 C83.69605818 11.27408919 103.56572458 18.39305425 122.1796875 28.50097656 C122.82276855 28.84064453 123.46584961 29.1803125 124.12841797 29.53027344 C135.1120796 35.33418615 145.19256638 42.12888145 155.1796875 49.50097656 C155.77410645 49.93555176 156.36852539 50.37012695 156.98095703 50.81787109 C165.60273604 57.14512446 173.48038001 64.09312551 181.1796875 71.50097656 C181.91880371 72.20722168 181.91880371 72.20722168 182.67285156 72.92773438 C189.39909688 79.38257773 195.43348434 86.16753547 201.1796875 93.50097656 C201.95828125 94.46261719 202.736875 95.42425781 203.5390625 96.41503906 C229.06484236 128.52549462 245.56672909 167.12112165 253.3671875 207.25097656 C253.53420166 208.10191895 253.70121582 208.95286133 253.87329102 209.82958984 C255.70383637 219.59563881 256.3383709 229.34220921 256.41796875 239.26660156 C256.4260405 240.2618988 256.43411224 241.25719604 256.44242859 242.28265381 C256.45616456 244.38015051 256.46693283 246.47766859 256.47485352 248.57519531 C256.48629262 250.67096756 256.50661376 252.76671257 256.53637695 254.86230469 C256.7528534 270.17771089 255.38890836 284.52160924 252.1796875 299.50097656 C252.0346579 300.18766418 251.8896283 300.87435181 251.74020386 301.58184814 C250.92112321 305.3949066 249.99198868 309.1691321 248.9921875 312.93847656 C248.55217407 314.61079346 248.55217407 314.61079346 248.10327148 316.31689453 C237.57591443 355.02757632 218.11311809 390.57890761 190.64453125 419.84863281 C188.68419882 421.9580872 186.81914067 424.09043598 184.9921875 426.31347656 C181.74728199 430.13750118 178.01692612 433.28704574 174.1796875 436.50097656 C173.30441406 437.2525 172.42914063 438.00402344 171.52734375 438.77832031 C141.33390144 464.43261425 108.59896727 482.22966969 70.11230469 491.76660156 C67.63744873 492.38634571 65.17817358 493.04221202 62.71875 493.71972656 C52.56453478 496.38855627 42.23434695 497.3262587 31.8046875 498.25097656 C31.0722583 498.31627563 30.3398291 498.38157471 29.58520508 498.44885254 C-11.37971267 502.0207067 -55.87140456 497.1466555 -93.8203125 480.50097656 C-94.53977051 480.19111816 -95.25922852 479.88125977 -96.00048828 479.56201172 C-108.7114081 474.03587322 -120.33421572 467.23293841 -131.8203125 459.50097656 C-132.57119141 458.99630859 -133.32207031 458.49164063 -134.09570312 457.97167969 C-189.33668995 420.55036603 -227.00071348 363.61841118 -239.6953125 298.04394531 C-241.82400322 286.60581372 -242.96971935 275.37691388 -243.0234375 263.73535156 C-243.02913757 262.74005432 -243.03483765 261.74475708 -243.04071045 260.71929932 C-243.05009314 258.62179605 -243.05666737 256.52427848 -243.06054688 254.42675781 C-243.07016121 251.30017541 -243.10121249 248.17427787 -243.1328125 245.04785156 C-243.23859149 224.8223296 -240.91645787 205.083387 -235.8203125 185.50097656 C-235.62630859 184.74349121 -235.43230469 183.98600586 -235.23242188 183.20556641 C-218.47091455 119.20587456 -174.77349629 66.30795441 -118.48828125 32.91113281 C-97.46461854 20.7053522 -74.79686674 12.72071518 -51.4453125 6.25097656 C-50.18182983 5.89966675 -50.18182983 5.89966675 -48.89282227 5.54125977 C-46.21095206 4.82046031 -43.51793583 4.16022071 -40.8203125 3.50097656 C-39.84658691 3.23027344 -38.87286133 2.95957031 -37.86962891 2.68066406 C-25.4238928 -0.37038463 -12.73981238 -0.0256559 0 0 Z " fill="#F8F8F8" transform="translate(243.8203125,-0.5009765625)"/>
<path d="M0 0 C0.83200928 0.0719458 1.66401855 0.1438916 2.52124023 0.21801758 C32.48263541 3.12886257 70.29575526 8.61905996 92.1171875 31.54296875 C95.53671384 36.00537967 97.41743032 39.70338537 97.1875 45.375 C97.16042969 46.24898438 97.13335937 47.12296875 97.10546875 48.0234375 C97.05326172 49.00183594 97.05326172 49.00183594 97 50 C97.74443359 49.60167969 97.74443359 49.60167969 98.50390625 49.1953125 C99.52291016 48.66550781 99.52291016 48.66550781 100.5625 48.125 C101.22378906 47.77695312 101.88507813 47.42890625 102.56640625 47.0703125 C113.62040601 42.20868179 126.23708662 42.48282954 137.390625 46.80859375 C149.28708828 52.24036216 157.10120517 60.62921243 162.11328125 72.67578125 C166.73673048 90.00862396 161.46074318 108.61522625 153.21386719 123.921875 C149.79158885 129.78077147 145.50161086 134.94677649 141 140 C140.19691406 140.90363281 139.39382813 141.80726563 138.56640625 142.73828125 C119.69372602 162.66460865 93.00835435 175.03633312 65.875 177.3125 C56.66817118 178.13919622 51.76112279 179.10000973 45.51171875 186.17578125 C32.72626374 200.55196161 13.92136396 207.56269297 -4 213 C-5.18464844 213.36222656 -6.36929688 213.72445312 -7.58984375 214.09765625 C-36.76120528 221.81653885 -69.1511361 216.48949514 -95.18774414 201.6862793 C-98.1915129 199.88573917 -101.10402136 197.96801429 -104 196 C-105.47919922 195.02353516 -105.47919922 195.02353516 -106.98828125 194.02734375 C-136.69018338 173.16768582 -157.93810438 138.53482136 -164.4140625 102.875 C-164.60742188 101.59625 -164.80078125 100.3175 -165 99 C-165.13245117 98.17886719 -165.26490234 97.35773438 -165.40136719 96.51171875 C-167.50043249 83.17204082 -168.32317615 69.92079109 -168.4375 56.4375 C-168.44953461 55.72540375 -168.46156921 55.0133075 -168.47396851 54.27963257 C-168.62867265 43.63183101 -167.38708782 35.90850639 -160.00390625 27.78515625 C-143.49222836 13.07592273 -113.04915877 3 -91 3 C-89.9936345 5.43504509 -88.99473587 7.87270864 -88 10.3125 C-87.71382813 11.00279297 -87.42765625 11.69308594 -87.1328125 12.40429688 C-85.91089256 15.41545674 -85 17.71886984 -85 21 C-85.70640625 21.15855469 -86.4128125 21.31710938 -87.140625 21.48046875 C-90.0516984 22.14240881 -92.95869487 22.82029566 -95.86474609 23.50390625 C-97.32713419 23.84366987 -98.79110414 24.17667593 -100.25634766 24.50390625 C-110.07754732 26.70131575 -119.51586171 29.33045587 -128.875 33.0625 C-129.7007251 33.39080811 -130.5264502 33.71911621 -131.37719727 34.05737305 C-138.12855106 36.84865744 -144.34449378 40.21588621 -149 46 C-149.40127511 48.58256854 -149.40127511 48.58256854 -148 51 C-129.16252615 71.40726334 -86.47627167 72.7390817 -61 74 C-52.53804654 74.2871702 -44.07725035 74.33088757 -35.61108398 74.31567383 C-31.93508602 74.31249791 -28.25988498 74.33617247 -24.58398438 74.36132812 C26.28409723 74.59377177 26.28409723 74.59377177 72 55 C73.68210653 52.51889286 74.86237108 50.52298991 75.625 47.625 C74.56119101 43.15700226 71.5009408 40.79375304 68 38 C61.55062612 34.20558414 54.67849162 31.61081111 47.5625 29.375 C46.61600586 29.07505127 45.66951172 28.77510254 44.69433594 28.46606445 C36.20364401 25.87704128 27.72919749 24.41564706 18.94433594 23.27197266 C16.39621828 22.91554334 13.89045809 22.41292104 11.375 21.875 C3.47561305 20.2151779 -4.51538644 19.79764228 -12.5625 19.4375 C-13.93245117 19.37272461 -13.93245117 19.37272461 -15.33007812 19.30664062 C-17.55327991 19.20188243 -19.77656707 19.09970983 -22 19 C-19.38816847 13.71924377 -16.44538684 8.99507556 -12.6875 4.4375 C-11.99011719 3.59058594 -11.29273438 2.74367187 -10.57421875 1.87109375 C-7.03529524 -0.70120422 -4.16396725 -0.41228711 0 0 Z " fill="#020202" transform="translate(285,232)"/>
<path d="M0 0 C0.495 0.99 0.495 0.99 1 2 C0.21625 2.886875 -0.5675 3.77375 -1.375 4.6875 C-3.08201525 6.7130947 -4.0146368 8.04000727 -4.9375 10.5625 C-6.49115297 14.12676269 -8.92483417 15.66019991 -12 18 C-9.69 18 -7.38 18 -5 18 C-4.01 19.98 -4.01 19.98 -3 22 C-1.68 21.67 -0.36 21.34 1 21 C0.195625 21.86625 -0.60875 22.7325 -1.4375 23.625 C-17.44455859 42.36312072 -24.55380003 63.81540821 -23.22753906 88.31787109 C-22.26465155 99.66795926 -18.55083554 111.54646039 -9.625 119.125 C-8.75875 119.74375 -7.8925 120.3625 -7 121 C-7.144375 120.44054687 -7.28875 119.88109375 -7.4375 119.3046875 C-11.29412085 102.64622799 -8.54818223 87.00992332 -0.0625 72.21484375 C4.73755683 64.73293699 9.79819016 57.34369164 17 52 C17 53.32 17 54.64 17 56 C16.01 56 15.02 56 14 56 C14.33 56.86625 14.66 57.7325 15 58.625 C16.02932396 62.09896837 16.3235934 64.40451783 16 68 C14.46875 70.7734375 14.46875 70.7734375 12.5 73.375 C11.8503125 74.24898438 11.200625 75.12296875 10.53125 76.0234375 C9.77328125 77.00183594 9.77328125 77.00183594 9 78 C9.69633545 78.03440186 10.3926709 78.06880371 11.11010742 78.10424805 C85.0205239 81.98983111 85.0205239 81.98983111 104.53125 102.85546875 C106.10021213 105.14632037 106.60530024 106.30723443 106.5625 109.0625 C105.41586467 113.56083862 102.42259696 115.82548479 98.73046875 118.40234375 C94.02694782 121.15447545 89.12244528 123.16696811 84 125 C83.33025146 125.24298828 82.66050293 125.48597656 81.97045898 125.73632812 C56.8403862 134.54054197 28.07691429 135.5164057 1.74145508 135.33618164 C-1.93235312 135.31253313 -5.60543118 135.31566367 -9.27929688 135.32226562 C-21.38709787 135.30859823 -33.43327105 134.98469451 -45.51171875 134.1171875 C-46.57937973 134.04152054 -47.64704071 133.96585358 -48.74705505 133.88789368 C-71.17111307 132.10212088 -100.46252855 127.51415601 -118.25 112.5 C-120 110 -120 110 -120.375 107.125 C-116.28852185 97.83754966 -104.88206186 94.33617843 -96.0390625 90.85546875 C-82.68905607 85.82425229 -69.08500636 83.04782007 -55 81 C-55.45632812 79.89140625 -55.91265625 78.7828125 -56.3828125 77.640625 C-56.96434907 76.17740396 -57.54503402 74.71384427 -58.125 73.25 C-58.42792969 72.52039063 -58.73085937 71.79078125 -59.04296875 71.0390625 C-61.18359806 65.56303404 -61.18359806 65.56303404 -60.1796875 62.484375 C-59.59574219 61.74960938 -59.59574219 61.74960938 -59 61 C-57.68 61 -56.36 61 -55 61 C-54.855625 60.4225 -54.71125 59.845 -54.5625 59.25 C-54.04166667 57.16666667 -53.52083333 55.08333333 -53 53 C-52.69449219 54.0209375 -52.38898438 55.041875 -52.07421875 56.09375 C-46.56687163 73.82927463 -39.05975356 91.34386477 -29 107 C-29 103.96274603 -30.2872062 101.51387753 -31.375 98.6875 C-38.89204575 78.01364671 -38.4594501 55.49223335 -29.42578125 35.51953125 C-25.56270435 27.83840165 -20.7000412 21.40241594 -15 15 C-14.5344873 14.47422363 -14.06897461 13.94844727 -13.58935547 13.40673828 C-12.1299461 11.7638714 -10.66166253 10.12963675 -9.1875 8.5 C-8.73149414 7.99525146 -8.27548828 7.49050293 -7.80566406 6.97045898 C-5.38016744 4.33628386 -2.94954447 2.03511693 0 0 Z " fill="#F7F7F6" transform="translate(255,172)"/>
<path d="M0 0 C16.44389583 -1.42577131 33.41337248 4.90484526 46.3125 14.9375 C47.88891383 16.27544359 49.45268098 17.62851269 51 19 C51.61359375 19.51949219 52.2271875 20.03898437 52.859375 20.57421875 C65.16300725 31.77729674 72.92631855 49.20683184 74.20532227 65.63769531 C74.30252351 68.34540887 74.32903959 71.04062339 74.3125 73.75 C74.30512817 75.19234009 74.30512817 75.19234009 74.29760742 76.66381836 C73.84742785 104.18479622 59.98915882 125.45066616 41.82421875 144.94921875 C39.90377583 147.01211393 38.01369064 149.09756054 36.14453125 151.20703125 C35.46173096 151.97382202 35.46173096 151.97382202 34.76513672 152.75610352 C33.50572715 154.17322877 32.25078014 155.59431626 30.99609375 157.015625 C29 159 29 159 27 159 C26.67322266 159.83724609 26.67322266 159.83724609 26.33984375 160.69140625 C24.55557832 163.76575281 22.24989447 165.6135503 19.5625 167.9375 C4.61631055 181.28813167 -10.70635635 200.44209376 -12.16113281 221.31152344 C-12.43835157 238.13161056 -11.72403034 252.77571212 -4.890625 268.42578125 C-4 271 -4 271 -5 274 C-22.64464205 247.43446351 -38.09472245 213.36165058 -31.74609375 180.91796875 C-26.01113891 158.4885904 -11.50577364 141.69068632 4.03833008 125.30200195 C8.21600204 120.88855516 12.15008979 116.34488224 15.9296875 111.58203125 C17.31133332 109.85888429 18.73410101 108.16793178 20.1953125 106.51171875 C33.71017455 90.99552696 42.51157615 72.29694013 42.2734375 51.53125 C41.17814343 37.38630942 34.38482607 23.52831158 23.8203125 14.04296875 C16.62822141 8.00474897 9.05399563 3.62089347 0 1 C0 0.67 0 0.34 0 0 Z " fill="#8B5A22" transform="translate(232,8)"/>
<path d="M0 0 C0 3 0 3 -1.72265625 4.98046875 C-2.49480469 5.70878906 -3.26695312 6.43710937 -4.0625 7.1875 C-7.04971162 10.0673587 -9.88984871 12.9512266 -12.5625 16.125 C-16.06294604 20.17563004 -19.85278523 23.62130082 -24 27 C-25.42119141 28.16015625 -25.42119141 28.16015625 -26.87109375 29.34375 C-49.17593408 47.19319586 -77.1062118 60.91975097 -105.1875 66.24609375 C-108.95991828 66.92704066 -108.95991828 66.92704066 -112.39453125 68.02734375 C-116.81632484 69.22022198 -121.13640854 69.70458682 -125.6875 70.125 C-126.57671143 70.20919189 -127.46592285 70.29338379 -128.38208008 70.38012695 C-134.95031084 70.97060366 -141.40589196 71.25724739 -148 71 C-149.20785156 70.98195313 -150.41570312 70.96390625 -151.66015625 70.9453125 C-164.41701258 70.60780484 -176.59978542 67.84259754 -189 65 C-190.18851562 64.74089844 -191.37703125 64.48179687 -192.6015625 64.21484375 C-225.75185284 56.58936374 -258.99469668 38.19374285 -282 13 C-282.66902344 12.2884375 -283.33804688 11.576875 -284.02734375 10.84375 C-289 5.40829208 -289 5.40829208 -289 2 C-288.20980469 2.556875 -287.41960937 3.11375 -286.60546875 3.6875 C-256.84930149 24.06473926 -220.27213514 29.39877198 -185.3046875 33.94921875 C-184.60210815 34.04070694 -183.89952881 34.13219513 -183.17565918 34.22645569 C-181.11786385 34.49081718 -179.05917266 34.74660646 -177 35 C-176.27351761 35.09292831 -175.54703522 35.18585663 -174.79853821 35.28160095 C-169.51464033 35.92268562 -164.31639715 36.15959446 -158.99609375 36.16796875 C-158.16391327 36.17224884 -157.33173279 36.17652893 -156.47433472 36.18093872 C-153.79533426 36.19087976 -151.11651534 36.19099807 -148.4375 36.1875 C-147.51794525 36.18656342 -146.5983905 36.18562683 -145.65097046 36.18466187 C-115.69590798 36.11849273 -85.92238086 33.18176781 -57 25 C-55.90300781 24.71769531 -54.80601562 24.43539063 -53.67578125 24.14453125 C-35.34763553 19.26979795 -14.63007031 12.49182926 0 0 Z " fill="#030303" transform="translate(395,428)"/>
<path d="M0 0 C3.83287247 3.64836772 6.07088872 7.290639 8.5 11.9375 C8.89509766 12.68950684 9.29019531 13.44151367 9.69726562 14.21630859 C19.46326905 33.31508062 20.93670297 55.01930354 14.60546875 75.4609375 C6.66780991 98.83155231 -10.23381875 117.07164547 -29.63085938 131.78442383 C-49.76168166 147.2045653 -66.22455182 165.39327245 -71 191 C-71.73339391 199.54720799 -70.90675061 207.6579661 -69 216 C-79.16385867 209.65403748 -83.54828767 200.9430705 -86.30078125 189.4453125 C-90.37842535 166.73372242 -85.17609434 145.09917556 -72.12890625 126.3046875 C-64.5450014 116.49764214 -55.65284323 107.54037434 -46.8359375 98.84375 C-46.2260498 98.24168732 -45.61616211 97.63962463 -44.98779297 97.01931763 C-42.49207903 94.55987005 -39.99359608 92.10341091 -37.48535156 89.65673828 C-27.04921067 79.46134818 -17.21004335 68.99162807 -10.1875 56.0625 C-9.82205078 55.40137207 -9.45660156 54.74024414 -9.08007812 54.05908203 C-3.52367023 43.71360321 0.15194681 33.12440364 0.09765625 21.2890625 C0.09443359 20.04511719 0.09121094 18.80117187 0.08789062 17.51953125 C0.07951172 16.23433594 0.07113281 14.94914062 0.0625 13.625 C0.05798828 12.31660156 0.05347656 11.00820312 0.04882812 9.66015625 C0.03707594 6.44005719 0.02064543 3.2200523 0 0 Z " fill="#8B5A22" transform="translate(318,78)"/>
<path d="M0 0 C0.99 0.495 0.99 0.495 2 1 C1.24976563 1.90878906 0.49953125 2.81757813 -0.2734375 3.75390625 C-1.3076395 5.02315416 -2.34147311 6.2927023 -3.375 7.5625 C-3.86355469 8.15224609 -4.35210937 8.74199219 -4.85546875 9.34960938 C-13.79287576 20.37995347 -21.07392787 32.58861271 -28.18927002 44.83804321 C-35.24875184 56.96547495 -42.44944162 68.84915333 -51 80 C-51.73734375 80.97710937 -52.4746875 81.95421875 -53.234375 82.9609375 C-61.92534015 94.03081647 -71.97045366 104.58947813 -84 112 C-84.76183594 112.50660156 -85.52367187 113.01320313 -86.30859375 113.53515625 C-109.30009498 128.2965306 -138.63958421 130.63759774 -165 125 C-169.38986066 123.81550619 -173.70526082 122.491933 -178 121 C-178 120.67 -178 120.34 -178 120 C-177.39752441 119.91548584 -176.79504883 119.83097168 -176.17431641 119.74389648 C-157.13338092 116.98478579 -140.53201418 112.82009089 -125 101 C-124.4436084 100.58202148 -123.8872168 100.16404297 -123.31396484 99.73339844 C-112.28380389 91.41896225 -101.89043707 82.61961835 -93 72 C-66.23411382 40.68860222 -39.1961059 19.17105683 -2 1 C-1.34 0.67 -0.68 0.34 0 0 Z " fill="#F6F6F6" transform="translate(363,295)"/>
<path d="M0 0 C12.02092452 5.07805164 20.60101944 17.8919158 25.375 29.4375 C30.0122636 41.6758435 28.59126411 54.08026109 23.30078125 65.92578125 C15.684982 82.13919411 4.19625585 95.31063804 -7.9375 108.3125 C-29.01819665 131.42670436 -42.91178426 156.32916942 -44 188 C-53.29114616 179.69844337 -57.72576633 162.75200951 -58.4140625 150.62890625 C-59.05423375 128.14912326 -51.13209538 111.83663286 -35.8046875 95.59375 C-29.06523094 88.59210246 -21.97165504 82.41097855 -14.2578125 76.515625 C-0.54037915 66.01308983 10.87569932 53.86762755 13.71484375 36.25390625 C15.04376179 25.74999245 12.08777633 16.39215155 5.875 7.875 C4.59187237 6.24324902 3.30155853 4.61708787 2 3 C1.34 2.01 0.68 1.02 0 0 Z " fill="#8B5A22" transform="translate(231,15)"/>
<path d="M0 0 C5.17505761 5.12635119 7.011332 11.38298988 7.375 18.5625 C6.85684024 37.61926444 -3.88144381 53.22481226 -17 66 C-17.66644531 66.67546875 -18.33289063 67.3509375 -19.01953125 68.046875 C-30.81485276 79.25114554 -48.0898479 87.28363257 -64 90 C-64.99 89.67 -65.98 89.34 -67 89 C-66.443125 88.08863281 -65.88625 87.17726563 -65.3125 86.23828125 C-58.80056797 75.29312128 -54.18988549 64.00529426 -50 52 C-49.38318359 50.27330078 -49.38318359 50.27330078 -48.75390625 48.51171875 C-44.67997665 36.28992994 -42.16507099 23.05618421 -41.40527344 10.19726562 C-40.50093875 5.29424623 -36.81773121 2.36684866 -33 -0.50390625 C-22.89558267 -7.22104732 -9.89310173 -7.20653465 0 0 Z " fill="#F6F6F6" transform="translate(423,300)"/>
<path d="M0 0 C17.64446073 -1.52986654 35.5505501 5.84486802 49 17 C47 18 47 18 45.0625 17.5 C42.82334576 16.76397597 42.82334576 16.76397597 40 18 C40 16.35 40 14.7 40 13 C39.38125 13.350625 38.7625 13.70125 38.125 14.0625 C37.42375 14.371875 36.7225 14.68125 36 15 C35.34 14.67 34.68 14.34 34 14 C33.34 16.31 32.68 18.62 32 21 C32.66 21 33.32 21 34 21 C33.67 22.32 33.34 23.64 33 25 C32.61070312 24.443125 32.22140625 23.88625 31.8203125 23.3125 C23.72867161 12.27505436 13.18044346 4.81539153 0 1 C0 0.67 0 0.34 0 0 Z " fill="#8A5A25" transform="translate(232,8)"/>
<path d="M0 0 C2.31 0 4.62 0 7 0 C6.67 0.66 6.34 1.32 6 2 C6.54527344 2.21914062 7.09054688 2.43828125 7.65234375 2.6640625 C15.94905689 6.15293674 23.38509045 10.88120867 30 17 C30.33 17.99 30.66 18.98 31 20 C29.906875 19.979375 28.81375 19.95875 27.6875 19.9375 C24.05615809 19.81455548 24.05615809 19.81455548 21 21 C21 20.01 21 19.02 21 18 C20.01 18 19.02 18 18 18 C19.98 21.3 21.96 24.6 24 28 C20.48788512 26.82929504 20.02150708 25.94935646 17.9375 23 C13.58953321 17.2150719 8.02524547 10.34174849 1 8 C1 7.34 1 6.68 1 6 C4.3 6.33 7.6 6.66 11 7 C11 6.34 11 5.68 11 5 C9.02 5 7.04 5 5 5 C5 4.34 5 3.68 5 3 C4.360625 2.87625 3.72125 2.7525 3.0625 2.625 C2.381875 2.41875 1.70125 2.2125 1 2 C0.67 1.34 0.34 0.68 0 0 Z " fill="#F8F2EC" transform="translate(229,7)"/>
<path d="M0 0 C0.66 0 1.32 0 2 0 C1.7834375 0.67160156 1.566875 1.34320313 1.34375 2.03515625 C-4.14737484 21.73710882 -2.01786567 43.81253179 6.109375 62.42578125 C7 65 7 65 6 68 C-0.28876134 58.38287827 -5.28662544 48.46720148 -10 38 C-6.125 37 -6.125 37 -5 37 C-4.95101562 35.76765625 -4.90203125 34.5353125 -4.8515625 33.265625 C-3.83061472 9.85015214 -3.83061472 9.85015214 0 0 Z " fill="#8C6336" transform="translate(221,214)"/>
<path d="M0 0 C3.89194426 1.6294025 6.80344826 4.24338481 9.875 7.0625 C10.40512695 7.548396 10.93525391 8.03429199 11.48144531 8.53491211 C15.71589595 12.52276521 19.37436587 16.76024768 22 22 C22 22.66 22 23.32 22 24 C19 23 19 23 18 22 C16.62637808 26.12086577 16.59428965 30.11942872 16.375 34.4375 C16.3234375 35.29666016 16.271875 36.15582031 16.21875 37.04101562 C16.17492187 37.87181641 16.13109375 38.70261719 16.0859375 39.55859375 C16.0451709 40.31454834 16.0044043 41.07050293 15.96240234 41.84936523 C15.90780256 44.02576651 15.90780256 44.02576651 16.61181641 46.13696289 C16.73991699 46.75176514 16.86801758 47.36656738 17 48 C15.125 50.25 15.125 50.25 13 52 C12.67 52 12.34 52 12 52 C11.67 52.66 11.34 53.32 11 54 C10.01 53.67 9.02 53.34 8 53 C8.34933594 52.29617187 8.69867188 51.59234375 9.05859375 50.8671875 C14.28400097 39.52820186 15.60987964 29.04832165 11.44921875 17.12109375 C9.0092264 11.86623151 5.61554887 7.49204556 2 3 C1.34 2.01 0.68 1.02 0 0 Z " fill="#8A5F2E" transform="translate(231,15)"/>
<path d="M0 0 C0.66 0.33 1.32 0.66 2 1 C1.7834375 1.94746094 1.7834375 1.94746094 1.5625 2.9140625 C-0.83112346 14.44999779 -0.62266316 25.52584867 2 37 C-3.03660528 33.55261484 -7.23223861 30.53552279 -10 25 C-9.6875 22.8125 -9.6875 22.8125 -9 21 C-9.33 20.01 -9.66 19.02 -10 18 C-8.25 15.9375 -8.25 15.9375 -6 14 C-3.859375 14.37890625 -3.859375 14.37890625 -2 15 C-2.10699219 14.25234375 -2.21398437 13.5046875 -2.32421875 12.734375 C-2.44410156 11.74953125 -2.56398437 10.7646875 -2.6875 9.75 C-2.81511719 8.77546875 -2.94273437 7.8009375 -3.07421875 6.796875 C-2.9871902 3.51727269 -2.19219402 2.36689329 0 0 Z " fill="#8B5B25" transform="translate(247,257)"/>
<path d="M0 0 C0.9115686 0.33209473 0.9115686 0.33209473 1.84155273 0.67089844 C18.07199723 6.5473069 33.94957003 11.20122532 51 14 C51 14.33 51 14.66 51 15 C33.6142563 15.84124566 16.59160588 10.5727868 0 6 C-0.38218767 4.34385343 -0.71395102 2.67542976 -1 1 C-0.67 0.67 -0.34 0.34 0 0 Z " fill="#EDECEC" transform="translate(174,482)"/>
<path d="M0 0 C-0.33 0.99 -0.66 1.98 -1 3 C-0.34 3.66 0.32 4.32 1 5 C-3.29043618 6.12972756 -7.58256058 7.25291003 -11.875 8.375 C-13.07898438 8.69210937 -14.28296875 9.00921875 -15.5234375 9.3359375 C-34.7198902 14.34370777 -34.7198902 14.34370777 -44 14 C-43.67 13.34 -43.34 12.68 -43 12 C-40.45820981 11.40609503 -37.94041932 10.90614053 -35.375 10.4375 C-26.28922415 8.63997459 -17.9722201 5.47436534 -9.44287109 1.90991211 C-8.03255615 1.32608765 -8.03255615 1.32608765 -6.59375 0.73046875 C-5.75521484 0.37364014 -4.91667969 0.01681152 -4.05273438 -0.35083008 C-2 -1 -2 -1 0 0 Z " fill="#EEEEEE" transform="translate(329,482)"/>
<path d="M0 0 C1.90318884 2.85478326 2.4619099 4.41941308 3.125 7.6875 C3.29257813 8.49574219 3.46015625 9.30398437 3.6328125 10.13671875 C3.75398437 10.75160156 3.87515625 11.36648437 4 12 C3.34 12 2.68 12 2 12 C1.97287934 13.43739513 1.95354933 14.87493863 1.9375 16.3125 C1.92589844 17.11300781 1.91429687 17.91351563 1.90234375 18.73828125 C1.90342145 21.16861334 1.90342145 21.16861334 3 24 C2.67 24.66 2.34 25.32 2 26 C1.34 26 0.68 26 0 26 C0 26.99 0 27.98 0 29 C-0.99 28.67 -1.98 28.34 -3 28 C-2.34 28 -1.68 28 -1 28 C-1.45632812 26.89140625 -1.91265625 25.7828125 -2.3828125 24.640625 C-2.96434907 23.17740396 -3.54503402 21.71384427 -4.125 20.25 C-4.42792969 19.52039063 -4.73085937 18.79078125 -5.04296875 18.0390625 C-7.18359806 12.56303404 -7.18359806 12.56303404 -6.1796875 9.484375 C-5.79039062 8.99453125 -5.40109375 8.5046875 -5 8 C-3.68 8 -2.36 8 -1 8 C-0.17361624 5.10765685 0 3.11257569 0 0 Z " fill="#F5F2F0" transform="translate(201,225)"/>
<path d="M0 0 C0.33 0.66 0.66 1.32 1 2 C0.21625 2.886875 -0.5675 3.77375 -1.375 4.6875 C-3.09338114 6.72747761 -4.03624807 8.09515118 -5 10.625 C-6.60229329 14.43044656 -9.5471719 16.29434064 -13.1875 18.0625 C-15.34509852 18.99309803 -15.34509852 18.99309803 -17 22 C-17.63292383 24.11280345 -17.63292383 24.11280345 -18 26 C-21 26 -21 26 -23 25 C-18.6222738 19.3302801 -14.07465 13.85473364 -9.25 8.5625 C-8.56103638 7.80114746 -8.56103638 7.80114746 -7.8581543 7.02441406 C-5.41585224 4.37203583 -2.97107612 2.04782116 0 0 Z " fill="#F7F1EB" transform="translate(255,172)"/>
<path d="M0 0 C2.31 0 4.62 0 7 0 C6.67 0.66 6.34 1.32 6 2 C6.59167969 2.25394531 7.18335938 2.50789062 7.79296875 2.76953125 C12.03640294 4.61781335 16.09893529 6.48318405 20 9 C19.34 9.66 18.68 10.32 18 11 C17.01 10.34 16.02 9.68 15 9 C13.68 9.99 12.36 10.98 11 12 C11.99 12.99 12.98 13.98 14 15 C10.42808296 15 10.02077328 14.41190492 7.5 12.0625 C5.19604302 9.92527675 4.05243655 9.01747885 1 8 C1 7.34 1 6.68 1 6 C4.3 6.33 7.6 6.66 11 7 C11 6.34 11 5.68 11 5 C9.02 5 7.04 5 5 5 C5 4.34 5 3.68 5 3 C4.360625 2.87625 3.72125 2.7525 3.0625 2.625 C2.381875 2.41875 1.70125 2.2125 1 2 C0.67 1.34 0.34 0.68 0 0 Z " fill="#F7F1EC" transform="translate(229,7)"/>
<path d="M0 0 C7.04440079 -0.21133202 13.24112575 -0.07965362 20 2 C20 2.66 20 3.32 20 4 C18.35 4 16.7 4 15 4 C15 4.66 15 5.32 15 6 C16.32 6 17.64 6 19 6 C21.25 8 21.25 8 23 10 C22.67 10.99 22.34 11.98 22 13 C21.5153125 12.61328125 21.030625 12.2265625 20.53125 11.828125 C14.11904677 6.84633633 7.80399073 3.34119722 0 1 C0 0.67 0 0.34 0 0 Z " fill="#896236" transform="translate(232,8)"/>
<path d="M0 0 C0.66 0 1.32 0 2 0 C2 1.32 2 2.64 2 4 C2.66 4 3.32 4 4 4 C4.19335938 4.60328125 4.38671875 5.2065625 4.5859375 5.828125 C4.84632813 6.62734375 5.10671875 7.4265625 5.375 8.25 C5.63023437 9.03890625 5.88546875 9.8278125 6.1484375 10.640625 C6.95173667 12.86627958 7.89711662 14.90931672 9 17 C9 16.34 9 15.68 9 15 C9.63474075 13.65117592 10.29848848 12.3153341 11 11 C11.99 11 12.98 11 14 11 C14 14.3 14 17.6 14 21 C12.68 21.33 11.36 21.66 10 22 C5.52172657 18.94896257 4.35809709 14.2311439 2.75 9.3125 C2.481875 8.52810547 2.21375 7.74371094 1.9375 6.93554688 C0 1.21695631 0 1.21695631 0 0 Z " fill="#895F2C" transform="translate(203,230)"/>
<path d="M0 0 C0.33 0.99 0.66 1.98 1 3 C-0.328125 4.9375 -0.328125 4.9375 -2.25 7 C-3.18585938 8.0209375 -3.18585938 8.0209375 -4.140625 9.0625 C-6 11 -6 11 -7.70703125 12.53125 C-9.34799315 14.11764246 -9.34799315 14.11764246 -9.4375 17.5 C-10 21 -10 21 -11.75 23.0625 C-14 24 -14 24 -16.75 23.1875 C-17.4925 22.795625 -18.235 22.40375 -19 22 C-14.97886344 16.14810208 -10.37576491 11.22270409 -5.26953125 6.296875 C-3.28967251 4.29316254 -1.61837963 2.29841537 0 0 Z " fill="#F7F4EE" transform="translate(281,144)"/>
<path d="M0 0 C0.66 0.33 1.32 0.66 2 1 C1.7834375 1.94746094 1.7834375 1.94746094 1.5625 2.9140625 C-0.83112346 14.44999779 -0.62266316 25.52584867 2 37 C-0.31 35.35 -2.62 33.7 -5 32 C-4.01 31.67 -3.02 31.34 -2 31 C-2.04600342 30.20303711 -2.09200684 29.40607422 -2.1394043 28.58496094 C-2.33858091 24.97399689 -2.51330512 21.3622517 -2.6875 17.75 C-2.76033203 16.49574219 -2.83316406 15.24148438 -2.90820312 13.94921875 C-2.96298828 12.74394531 -3.01777344 11.53867187 -3.07421875 10.296875 C-3.13182373 9.18666992 -3.18942871 8.07646484 -3.2487793 6.93261719 C-2.97056187 3.65298256 -2.21139025 2.37566496 0 0 Z " fill="#886234" transform="translate(247,257)"/>
<path d="M0 0 C0.33 0 0.66 0 1 0 C1 9.57 1 19.14 1 29 C1.66 29 2.32 29 3 29 C2.67 31.31 2.34 33.62 2 36 C1.67 36 1.34 36 1 36 C-0.8556714 28.9367132 -1.27639885 22.47252668 -1.1875 15.1875 C-1.18685547 14.16462891 -1.18621094 13.14175781 -1.18554688 12.08789062 C-1.13732038 3.90546175 -1.13732038 3.90546175 0 0 Z " fill="#8B653C" transform="translate(232,236)"/>
<path d="M0 0 C4.42174588 6.63261882 3.10024929 14.42141718 2 22 C0.93278863 25.48362084 -0.38359968 28.73712679 -2 32 C-3 29 -3 29 -2.0625 26.5 C-0.81679736 22.39650896 -0.90949749 18.93835645 -0.99609375 14.68359375 C-1.00089015 11.38846591 -0.51988949 8.24930929 0 5 C0.03545297 3.33371045 0.05048188 1.66590197 0 0 Z " fill="#F2E5D5" transform="translate(243,34)"/>
<path d="M0 0 C4.36973874 6.55460812 3.78147368 14.74249082 2.3984375 22.27734375 C1.239995 27.01057597 -0.12175899 31.50038784 -2 36 C-2.33 36 -2.66 36 -3 36 C-3.25 30.375 -3.25 30.375 -1 27 C-0.08729553 23.52524229 0.11860605 20.28163473 0.09765625 16.69921875 C0.09443359 15.72275391 0.09121094 14.74628906 0.08789062 13.74023438 C0.07951172 12.73283203 0.07113281 11.72542969 0.0625 10.6875 C0.05798828 9.66076172 0.05347656 8.63402344 0.04882812 7.57617188 C0.03708184 5.05072118 0.02065565 2.52539095 0 0 Z " fill="#95724C" transform="translate(256,46)"/>
<path d="M0 0 C3.81088512 3.81088512 5.65404304 6.30808609 8 11 C7.67 11.66 7.34 12.32 7 13 C6.34 12.01 5.68 11.02 5 10 C4.34 10 3.68 10 3 10 C2.98018066 10.59538574 2.96036133 11.19077148 2.93994141 11.80419922 C2.84483874 14.49492153 2.73510158 17.18485148 2.625 19.875 C2.5940625 20.81214844 2.563125 21.74929687 2.53125 22.71484375 C2.49257813 23.61074219 2.45390625 24.50664063 2.4140625 25.4296875 C2.3826416 26.25710449 2.3512207 27.08452148 2.31884766 27.93701172 C2 30 2 30 0 32 C0 21.44 0 10.88 0 0 Z " fill="#8D6D47" transform="translate(318,78)"/>
<path d="M0 0 C0.33 0.66 0.66 1.32 1 2 C-0.26988607 4.39867369 -1.5939993 6.68450709 -3 9 C-3.71022651 10.29062667 -4.41865061 11.58224734 -5.125 12.875 C-7 16 -7 16 -9 17 C-9 16.34 -9 15.68 -9 15 C-10.32 15.33 -11.64 15.66 -13 16 C-8.93866463 10.40636594 -4.6208599 5.14036486 0 0 Z " fill="#F7F4EE" transform="translate(233,111)"/>
<path d="M0 0 C1.2380014 3.57644848 0.74926071 6.33694766 0 10 C-0.66 10 -1.32 10 -2 10 C-1.979375 10.969375 -1.95875 11.93875 -1.9375 12.9375 C-2 16 -2 16 -3 17 C-3.397493 19.34723966 -3.74368723 21.70328548 -4.0625 24.0625 C-4.23910156 25.35285156 -4.41570312 26.64320313 -4.59765625 27.97265625 C-4.73042969 28.97167969 -4.86320313 29.97070312 -5 31 C-5.33 31 -5.66 31 -6 31 C-6.81188775 20.15227755 -4.20764795 9.96947217 0 0 Z " fill="#F3E8D6" transform="translate(193,166)"/>
<path d="M0 0 C0.33 0.99 0.66 1.98 1 3 C0.67 3.66 0.34 4.32 0 5 C-0.99 5 -1.98 5 -3 5 C-3.66 6.32 -4.32 7.64 -5 9 C-5.66 9 -6.32 9 -7 9 C-7.12375 9.61875 -7.2475 10.2375 -7.375 10.875 C-8 13 -8 13 -10 15 C-10.66 15 -11.32 15 -12 15 C-13.38232443 16.62626404 -14.71937515 18.2925002 -16 20 C-16.66 19.67 -17.32 19.34 -18 19 C-16.12660182 16.95684406 -14.25133366 14.91545741 -12.375 12.875 C-11.59189453 12.02035156 -11.59189453 12.02035156 -10.79296875 11.1484375 C-7.28415811 7.33639631 -3.68571182 3.641439 0 0 Z " fill="#875F33" transform="translate(203,103)"/>
<path d="M0 0 C4.12417063 1.6616804 7.06554039 4.62338018 10.25 7.625 C10.80429688 8.140625 11.35859375 8.65625 11.9296875 9.1875 C13.2902712 10.45425035 14.64565837 11.72657815 16 13 C12.83806722 14.05397759 11.98652594 14.24001954 9 13 C7.40234375 11.07421875 7.40234375 11.07421875 5.9375 8.6875 C4.06673529 5.68534443 2.16123012 2.80254469 0 0 Z " fill="#8A6136" transform="translate(231,15)"/>
<path d="M0 0 C0.66 0.99 1.32 1.98 2 3 C0.90207715 8.37982196 0.90207715 8.37982196 -2 10.375 C-4 11 -4 11 -6 11 C-7.33783393 11.31478446 -8.67203709 11.64587656 -10 12 C-9.61328125 11.55269531 -9.2265625 11.10539063 -8.828125 10.64453125 C-5.81609925 7.1478974 -2.85678969 3.62592537 0 0 Z " fill="#8E6331" transform="translate(245,123)"/>
<path d="M0 0 C1.66413655 3.3282731 0.81867406 6.99733973 0.5625 10.625 C0.51029297 11.42679688 0.45808594 12.22859375 0.40429688 13.0546875 C0.27451629 15.03679103 0.13790265 17.01844499 0 19 C-2.40575607 16.81482901 -3.79535581 14.74080329 -5.1875 11.8125 C-5.53167969 11.09707031 -5.87585938 10.38164062 -6.23046875 9.64453125 C-6.48441406 9.10183594 -6.73835937 8.55914062 -7 8 C-6.01 8.33 -5.02 8.66 -4 9 C-4 9.99 -4 10.98 -4 12 C-3.34 12 -2.68 12 -2 12 C-1.93941406 11.21753906 -1.87882813 10.43507812 -1.81640625 9.62890625 C-1.73261719 8.61699219 -1.64882812 7.60507813 -1.5625 6.5625 C-1.48128906 5.55316406 -1.40007812 4.54382813 -1.31640625 3.50390625 C-1 1 -1 1 0 0 Z " fill="#8F6F49" transform="translate(187,184)"/>
<path d="M0 0 C1.0725 0.37125 2.145 0.7425 3.25 1.125 C6.81629347 2.31491732 6.81629347 2.31491732 9.4375 1.125 C9.953125 0.75375 10.46875 0.3825 11 0 C10.47731534 2.76276177 9.89130413 5.3260876 9 8 C9.66 8 10.32 8 11 8 C10.67 9.32 10.34 10.64 10 12 C9.29423828 11.07767578 9.29423828 11.07767578 8.57421875 10.13671875 C7.95160156 9.32847656 7.32898438 8.52023438 6.6875 7.6875 C6.07261719 6.88699219 5.45773437 6.08648437 4.82421875 5.26171875 C3.30083693 3.37298626 1.75565593 1.66922364 0 0 Z " fill="#8F602F" transform="translate(255,21)"/>
<path d="M0 0 C0.7734375 0.61875 0.7734375 0.61875 1.5625 1.25 C1 3.1875 1 3.1875 -0.4375 5.25 C-6.58384146 6.67682927 -6.58384146 6.67682927 -9.4375 5.25 C-9.4375 4.59 -9.4375 3.93 -9.4375 3.25 C-3.0375 -0.93461538 -3.0375 -0.93461538 0 0 Z " fill="#F0F0F0" transform="translate(404.4375,391.75)"/>
<path d="M0 0 C0.99 0 1.98 0 3 0 C3.86555948 2.09950586 4.71711277 4.2047907 5.5625 6.3125 C6.03816406 7.48425781 6.51382813 8.65601563 7.00390625 9.86328125 C8 13 8 13 7 16 C5.63304778 13.90320896 4.28153009 11.7989062 2.9375 9.6875 C2.54755859 9.09259766 2.15761719 8.49769531 1.75585938 7.88476562 C0.75788505 6.30390365 -0.12868696 4.65405288 -1 3 C-0.67 2.01 -0.34 1.02 0 0 Z " fill="#866133" transform="translate(220,266)"/>
<path d="M0 0 C0 4.03223106 -1.64129026 5.80880447 -4 9 C-4.99 9.495 -4.99 9.495 -6 10 C-6.33 10.66 -6.66 11.32 -7 12 C-7.66 12 -8.32 12 -9 12 C-9.66 13.32 -10.32 14.64 -11 16 C-11.99 16 -12.98 16 -14 16 C-12.34136495 11.67495164 -9.128959 8.90581175 -5.875 5.75 C-5.31167969 5.19570312 -4.74835938 4.64140625 -4.16796875 4.0703125 C-2.78313972 2.70895515 -1.39216796 1.35385141 0 0 Z " fill="#916938" transform="translate(290,158)"/>
<path d="M0 0 C10.395 1.98 10.395 1.98 21 4 C21 4.33 21 4.66 21 5 C14.04958914 5.26618595 7.76485645 4.6120509 1 3 C0.67 2.01 0.34 1.02 0 0 Z " fill="#B9B3BD" transform="translate(204,492)"/>
<path d="M0 0 C0.625 1.875 0.625 1.875 1 4 C0.34 4.66 -0.32 5.32 -1 6 C-1.165 6.845625 -1.33 7.69125 -1.5 8.5625 C-1.665 9.366875 -1.83 10.17125 -2 11 C-2.99 11.495 -2.99 11.495 -4 12 C-4.7425 13.0209375 -4.7425 13.0209375 -5.5 14.0625 C-5.995 14.701875 -6.49 15.34125 -7 16 C-7.66 16 -8.32 16 -9 16 C-7.51637716 9.73581469 -3.75837844 5.08486495 0 0 Z " fill="#F6ECDF" transform="translate(262,234)"/>
<path d="M0 0 C1.5877405 0.90901174 3.17001197 1.82757924 4.75 2.75 C6.07257813 3.51570313 6.07257813 3.51570313 7.421875 4.296875 C9.96537343 5.97712548 11.92902925 7.77419032 14 10 C12.6078125 9.7215625 12.6078125 9.7215625 11.1875 9.4375 C7.98656229 8.75876119 7.98656229 8.75876119 5 10 C5 8.35 5 6.7 5 5 C4.360625 4.731875 3.72125 4.46375 3.0625 4.1875 C1 3 1 3 0 0 Z " fill="#8D6538" transform="translate(267,16)"/>
<path d="M0 0 C2.31 0 4.62 0 7 0 C6.67 0.66 6.34 1.32 6 2 C6.59167969 2.25394531 7.18335938 2.50789062 7.79296875 2.76953125 C12.03640294 4.61781335 16.09893529 6.48318405 20 9 C19.34 9.66 18.68 10.32 18 11 C16.96875 10.195625 15.9375 9.39125 14.875 8.5625 C11.62872304 6.22200704 9.05097617 5.29641289 5 5 C5 4.34 5 3.68 5 3 C4.360625 2.87625 3.72125 2.7525 3.0625 2.625 C2.381875 2.41875 1.70125 2.2125 1 2 C0.67 1.34 0.34 0.68 0 0 Z " fill="#EADFD1" transform="translate(229,7)"/>
<path d="M0 0 C0.66 0.33 1.32 0.66 2 1 C0.59449154 5.47207238 -1.6364143 7.80049165 -5 11 C-6.02813611 12.31175986 -7.04084432 13.6369893 -8 15 C-8.99 14.67 -9.98 14.34 -11 14 C-10.37351562 13.24074219 -9.74703125 12.48148438 -9.1015625 11.69921875 C-8.28429687 10.70535156 -7.46703125 9.71148437 -6.625 8.6875 C-5.81289063 7.70136719 -5.00078125 6.71523437 -4.1640625 5.69921875 C-1.94395043 3.01091621 -1.94395043 3.01091621 0 0 Z " fill="#8A653B" transform="translate(305,139)"/>
<path d="M0 0 C0.66 0.33 1.32 0.66 2 1 C0.87802953 3.4389358 -0.24743424 5.87615255 -1.375 8.3125 C-1.85066406 9.34793945 -1.85066406 9.34793945 -2.3359375 10.40429688 C-3.73807723 13.42766067 -5.1477087 16.22156305 -7 19 C-5.48076923 4.56730769 -5.48076923 4.56730769 0 0 Z " fill="#F7EBDD" transform="translate(241,209)"/>
<path d="M0 0 C1 3 1 3 -0.43359375 5.91796875 C-1.09488281 6.99691406 -1.75617188 8.07585937 -2.4375 9.1875 C-3.09621094 10.27417969 -3.75492187 11.36085937 -4.43359375 12.48046875 C-5.20896484 13.72763672 -5.20896484 13.72763672 -6 15 C-6.66 13.68 -7.32 12.36 -8 11 C-7.01 11 -6.02 11 -5 11 C-5.268125 10.278125 -5.53625 9.55625 -5.8125 8.8125 C-6 6 -6 6 -3.625 3.25 C-2.75875 2.5075 -1.8925 1.765 -1 1 C-0.67 0.67 -0.34 0.34 0 0 Z " fill="#8A6437" transform="translate(328,160)"/>
<path d="M0 0 C1.65 0.33 3.3 0.66 5 1 C3.02 3.97 1.04 6.94 -1 10 C-1.66 9.67 -2.32 9.34 -3 9 C-2.25 2.25 -2.25 2.25 0 0 Z " fill="#8A5F30" transform="translate(204,139)"/>
<path d="M0 0 C0.33 0.99 0.66 1.98 1 3 C-0.44140625 5.62890625 -0.44140625 5.62890625 -2.5625 8.5625 C-3.24441406 9.53316406 -3.92632812 10.50382812 -4.62890625 11.50390625 C-7.30125491 14.31713655 -9.27229161 15.09615105 -13 16 C-12.154375 15.030625 -11.30875 14.06125 -10.4375 13.0625 C-6.80214054 8.82847752 -3.39403181 4.42830778 0 0 Z " fill="#8A663B" transform="translate(238,70)"/>
<path d="M0 0 C1.32 0.66 2.64 1.32 4 2 C3.649375 2.598125 3.29875 3.19625 2.9375 3.8125 C1.66695302 6.10813214 1.66695302 6.10813214 3 9 C-0.36720387 7.60667426 -1.9859524 6.0210714 -4 3 C-2.68 2.67 -1.36 2.34 0 2 C0 1.34 0 0.68 0 0 Z " fill="#F9FAF9" transform="translate(243,15)"/>
<path d="M0 0 C0.66 0.33 1.32 0.66 2 1 C2.6328125 3.50390625 2.6328125 3.50390625 3.125 6.5625 C3.29257813 7.57441406 3.46015625 8.58632813 3.6328125 9.62890625 C3.75398437 10.41136719 3.87515625 11.19382812 4 12 C1.69 10.35 -0.62 8.7 -3 7 C-2.01 6.67 -1.02 6.34 0 6 C0 4.02 0 2.04 0 0 Z " fill="#93714B" transform="translate(245,282)"/>
<path d="M0 0 C0.33 0.66 0.66 1.32 1 2 C0.21625 2.7425 -0.5675 3.485 -1.375 4.25 C-4.03680535 6.70898218 -4.03680535 6.70898218 -4.9375 9.25 C-5.288125 9.8275 -5.63875 10.405 -6 11 C-9.125 11.75 -9.125 11.75 -12 12 C-8 8 -4 4 0 0 Z " fill="#F4EADB" transform="translate(284,212)"/>
<path d="M0 0 C0.33 0.66 0.66 1.32 1 2 C0.360625 2.928125 -0.27875 3.85625 -0.9375 4.8125 C-3.08622093 7.84219943 -3.08622093 7.84219943 -4 11 C-4.99 11 -5.98 11 -7 11 C-7.33 11.66 -7.66 12.32 -8 13 C-8.66 12.34 -9.32 11.68 -10 11 C-9.52949219 10.54109375 -9.05898437 10.0821875 -8.57421875 9.609375 C-3.96631602 5.08450705 -3.96631602 5.08450705 0 0 Z " fill="#8D693E" transform="translate(234,135)"/>
<path d="M0 0 C0.33 0.99 0.66 1.98 1 3 C0.01 3.33 -0.98 3.66 -2 4 C-2 6.31 -2 8.62 -2 11 C-2.99 10.67 -3.98 10.34 -5 10 C-5.99 11.485 -5.99 11.485 -7 13 C-7.66 13 -8.32 13 -9 13 C-7.50923566 9.7173068 -5.61379679 7.06922559 -3.375 4.25 C-2.74335938 3.45078125 -2.11171875 2.6515625 -1.4609375 1.828125 C-0.97882813 1.22484375 -0.49671875 0.6215625 0 0 Z " fill="#F6EBDD" transform="translate(215,132)"/>
<path d="M0 0 C1.66832577 2.50248865 2.62381674 4.41149187 3.625 7.1875 C3.88539063 7.90292969 4.14578125 8.61835938 4.4140625 9.35546875 C4.60742188 9.89816406 4.80078125 10.44085938 5 11 C4.01 11.33 3.02 11.66 2 12 C0.4375 10.5 0.4375 10.5 -1 8 C-0.96823234 5.22562457 -0.50364148 2.74713533 0 0 Z " fill="#F6F0E3" transform="translate(233,272)"/>
<path d="M0 0 C0.66 0.33 1.32 0.66 2 1 C-0.475 4.465 -0.475 4.465 -3 8 C-3.66 7.67 -4.32 7.34 -5 7 C-5.625 4.4375 -5.625 4.4375 -6 2 C-3 0 -3 0 0 0 Z " fill="#F7F1E9" transform="translate(303,139)"/>
<path d="M0 0 C0.66 0 1.32 0 2 0 C1.36884161 3.15579194 0.27895408 5.47275215 -1.4375 8.1875 C-2.08525391 9.22970703 -2.08525391 9.22970703 -2.74609375 10.29296875 C-4 12 -4 12 -6 13 C-4.58707905 8.1725201 -2.57025846 4.2837641 0 0 Z " fill="#8C663C" transform="translate(210,166)"/>
<path d="M0 0 C0.66 0.33 1.32 0.66 2 1 C2 1.66 2 2.32 2 3 C1.34 3 0.68 3 0 3 C0.33 4.65 0.66 6.3 1 8 C-0.65 9.32 -2.3 10.64 -4 12 C-4.66 11.67 -5.32 11.34 -6 11 C-4.02 7.37 -2.04 3.74 0 0 Z " fill="#F7EDE3" transform="translate(298,118)"/>
<path d="M0 0 C0.99 0.33 1.98 0.66 3 1 C0.66666667 5.66666667 -1.66666667 10.33333333 -4 15 C-3.67 12.03 -3.34 9.06 -3 6 C-2.34 6 -1.68 6 -1 6 C-0.67 4.02 -0.34 2.04 0 0 Z " fill="#8A653C" transform="translate(253,243)"/>
<path d="M0 0 C0.33 0.99 0.66 1.98 1 3 C-1.91200245 7.56696036 -5.59795923 11.69041436 -11 13 C-10.62488281 12.56429687 -10.24976563 12.12859375 -9.86328125 11.6796875 C-6.54140223 7.81392401 -3.25357073 3.92342352 0 0 Z " fill="#F1E3D3" transform="translate(281,144)"/>
<path d="M0 0 C0.33 0.66 0.66 1.32 1 2 C-1.08439082 5.12658623 -1.8463034 5.4231517 -5 7 C-5.99 8.485 -5.99 8.485 -7 10 C-7.99 9.67 -8.98 9.34 -10 9 C-8.71142987 7.68445979 -7.41904109 6.37265903 -6.125 5.0625 C-5.04605469 3.96615234 -5.04605469 3.96615234 -3.9453125 2.84765625 C-2 1 -2 1 0 0 Z " fill="#EEE3D2" transform="translate(255,172)"/>
<path d="M0 0 C0.33 0 0.66 0 1 0 C1.37992882 3.34218632 1.23536171 4.66954796 -0.75 7.45703125 C-1.86375 8.62298828 -1.86375 8.62298828 -3 9.8125 C-3.7425 10.60269531 -4.485 11.39289063 -5.25 12.20703125 C-5.8275 12.79871094 -6.405 13.39039063 -7 14 C-7.66 13.67 -8.32 13.34 -9 13 C-8.43410156 12.22914063 -7.86820312 11.45828125 -7.28515625 10.6640625 C-6.55167969 9.66117188 -5.81820313 8.65828125 -5.0625 7.625 C-4.33160156 6.62726563 -3.60070312 5.62953125 -2.84765625 4.6015625 C-1.0220431 2.17182891 -1.0220431 2.17182891 0 0 Z " fill="#F8ECDE" transform="translate(291,130)"/>
<path d="M0 0 C0.33 0.66 0.66 1.32 1 2 C-0.78706284 5.45087996 -2.25853216 8.25853216 -5 11 C-7.125 10.625 -7.125 10.625 -9 10 C-8.27683594 9.29423828 -8.27683594 9.29423828 -7.5390625 8.57421875 C-6.90742188 7.95160156 -6.27578125 7.32898438 -5.625 6.6875 C-4.68527344 5.76517578 -4.68527344 5.76517578 -3.7265625 4.82421875 C-1.81913393 2.91187472 -1.81913393 2.91187472 0 0 Z " fill="#F4E8DA" transform="translate(233,111)"/>
<path d="M0 0 C0.66 0.33 1.32 0.66 2 1 C0.87970983 2.48273699 -0.24638618 3.96108886 -1.375 5.4375 C-2.00148437 6.26121094 -2.62796875 7.08492188 -3.2734375 7.93359375 C-5 10 -5 10 -7 11 C-6.6875 9.0625 -6.6875 9.0625 -6 7 C-5.01 6.67 -4.02 6.34 -3 6 C-2.814375 4.7934375 -2.814375 4.7934375 -2.625 3.5625 C-2.41875 2.716875 -2.2125 1.87125 -2 1 C-1.34 0.67 -0.68 0.34 0 0 Z " fill="#F6EDE0" transform="translate(256,107)"/>
<path d="M0 0 C4.875 4.625 4.875 4.625 6 8 C5.01 9.485 5.01 9.485 4 11 C3.01 10.67 2.02 10.34 1 10 C1.309375 8.824375 1.309375 8.824375 1.625 7.625 C1.74875 6.75875 1.8725 5.8925 2 5 C1.34 4.34 0.68 3.68 0 3 C0 2.01 0 1.02 0 0 Z " fill="#F5EDE2" transform="translate(234,19)"/>
<path d="M0 0 C1.32 0 2.64 0 4 0 C4 0.66 4 1.32 4 2 C5.32 2 6.64 2 8 2 C10.25 4 10.25 4 12 6 C11.67 6.99 11.34 7.98 11 9 C9.72689688 8.06558465 8.456612 7.12732889 7.1875 6.1875 C6.47980469 5.66542969 5.77210938 5.14335937 5.04296875 4.60546875 C3.21468607 3.16871123 1.60103312 1.68184237 0 0 Z " fill="#8E693F" transform="translate(243,12)"/>
<path d="M0 0 C0 0.99 0 1.98 0 3 C-0.99 3 -1.98 3 -3 3 C-2.01 2.01 -1.02 1.02 0 0 Z M-5 4 C-4.01 4.33 -3.02 4.66 -2 5 C-2.33 5.99 -2.66 6.98 -3 8 C-5.31 8.33 -7.62 8.66 -10 9 C-8.35 7.35 -6.7 5.7 -5 4 Z " fill="#E4E4E4" transform="translate(414,382)"/>
<path d="M0 0 C0.66 0.33 1.32 0.66 2 1 C0.35 2.98 -1.3 4.96 -3 7 C-5.475 6.01 -5.475 6.01 -8 5 C-5.45378681 2.99940392 -3.01962385 1.20784954 0 0 Z " fill="#E3E3E3" transform="translate(363,295)"/>
<path d="M0 0 C0.33 0.66 0.66 1.32 1 2 C0.06553465 4.03144641 -0.93224776 6.03533587 -2 8 C-2.66 7.67 -3.32 7.34 -4 7 C-6.60931266 7.89363605 -6.60931266 7.89363605 -9 9 C-6 6 -3 3 0 0 Z " fill="#F7ECDF" transform="translate(302,197)"/>
<path d="M0 0 C0 3.99904969 -1.72586967 5.80200422 -4 9 C-5.32 8.67 -6.64 8.34 -8 8 C-5.36 5.36 -2.72 2.72 0 0 Z " fill="#F1E4D0" transform="translate(311,188)"/>
<path d="M0 0 C1.13643966 3.40931897 0.86747764 4.00335456 -0.4375 7.1875 C-0.72496094 7.90292969 -1.01242188 8.61835938 -1.30859375 9.35546875 C-1.53675781 9.89816406 -1.76492187 10.44085938 -2 11 C-2.99 10.67 -3.98 10.34 -5 10 C-3.84414715 6.08788267 -2.64465038 3.1254959 0 0 Z " fill="#8E6A3D" transform="translate(184,124)"/>
<path d="M0 0 C0.33 0.66 0.66 1.32 1 2 C0.0625 4.625 0.0625 4.625 -1 7 C-1.99 6.67 -2.98 6.34 -4 6 C-4.33 6.99 -4.66 7.98 -5 9 C-5.99 8.67 -6.98 8.34 -8 8 C-5.36 5.36 -2.72 2.72 0 0 Z " fill="#977348" transform="translate(264,184)"/>
<path d="M0 0 C1.32 0.33 2.64 0.66 4 1 C1.36 3.64 -1.28 6.28 -4 9 C-4.66 8.34 -5.32 7.68 -6 7 C-5.195625 6.21625 -4.39125 5.4325 -3.5625 4.625 C-1.01309583 2.28017144 -1.01309583 2.28017144 0 0 Z " fill="#FAF0E5" transform="translate(288,156)"/>
<path d="M0 0 C1.32 0.33 2.64 0.66 4 1 C0.66666667 4.33333333 -2.66666667 7.66666667 -6 11 C-5.45156876 7.16098132 -3.7234735 5.63836495 -1 3 C-0.67 2.01 -0.34 1.02 0 0 Z " fill="#896539" transform="translate(227,114)"/>
<path d="M0 0 C0 1.65 0 3.3 0 5 C-3.47307692 7.10865385 -3.47307692 7.10865385 -6.140625 6.55859375 C-7.06101563 6.28208984 -7.06101563 6.28208984 -8 6 C-6.85675161 4.9970458 -5.71032809 3.99770973 -4.5625 3 C-3.92441406 2.443125 -3.28632813 1.88625 -2.62890625 1.3125 C-1 0 -1 0 0 0 Z " fill="#876439" transform="translate(212,96)"/>
<path d="M0 0 C0.33 0.66 0.66 1.32 1 2 C-0.98 4.97 -2.96 7.94 -5 11 C-5.99 10.67 -6.98 10.34 -8 10 C-5.36 6.7 -2.72 3.4 0 0 Z " fill="#89663D" transform="translate(222,149)"/>
<path d="M0 0 C0 0.33 0 0.66 0 1 C-4.40914783 2.10228696 -8.48382401 2.07654536 -13 2 C-12.67 1.34 -12.34 0.68 -12 0 C-7.70894191 -1.09771253 -4.30788144 -0.92311745 0 0 Z " fill="#C0BDC0" transform="translate(298,494)"/>
<path d="M0 0 C0.33 1.32 0.66 2.64 1 4 C0.01 4 -0.98 4 -2 4 C-2.33 5.32 -2.66 6.64 -3 8 C-3.99 8 -4.98 8 -6 8 C-4.55746343 4.63408134 -2.66735273 2.48952921 0 0 Z " fill="#F2E7D6" transform="translate(271,224)"/>
<path d="M0 0 C0.33 0 0.66 0 1 0 C1.05447047 1.41623216 1.09300508 2.83308191 1.125 4.25 C1.14820313 5.03890625 1.17140625 5.8278125 1.1953125 6.640625 C0.9828378 9.20731941 0.28654105 10.7916067 -1 13 C-2.51403812 8.15507803 -1.36602172 4.7408989 0 0 Z " fill="#F5ECDE" transform="translate(199,189)"/>
<path d="M0 0 C0.66 0.33 1.32 0.66 2 1 C-0.97 4.96 -0.97 4.96 -4 9 C-4.99 8.34 -5.98 7.68 -7 7 C-4.66666667 4.66666667 -2.33333333 2.33333333 0 0 Z " fill="#F9EDDE" transform="translate(236,70)"/>
<path d="M0 0 C-0.33 0.99 -0.66 1.98 -1 3 C-5.455 2.01 -5.455 2.01 -10 1 C-10 0.67 -10 0.34 -10 0 C-3.375 -1.125 -3.375 -1.125 0 0 Z " fill="#DEDEDE" transform="translate(195,415)"/>
<path d="M0 0 C1.80125336 2.70188004 3.00243753 4.93057703 4 8 C3.67 8.99 3.34 9.98 3 11 C1.35 8.03 -0.3 5.06 -2 2 C-1.34 2 -0.68 2 0 2 C0 1.34 0 0.68 0 0 Z " fill="#8D7453" transform="translate(224,271)"/>
<path d="M0 0 C1 2 1 2 0.0625 5.125 C-0.288125 6.07375 -0.63875 7.0225 -1 8 C-1.66 8 -2.32 8 -3 8 C-3.33 8.66 -3.66 9.32 -4 10 C-4.33 9.34 -4.66 8.68 -5 8 C-4.00390625 6.0546875 -4.00390625 6.0546875 -2.5625 3.875 C-2.08941406 3.15054688 -1.61632812 2.42609375 -1.12890625 1.6796875 C-0.75636719 1.12539062 -0.38382813 0.57109375 0 0 Z " fill="#89663E" transform="translate(245,206)"/>
<path d="M0 0 C1 3 1 3 1 7 C-0.65 7.66 -2.3 8.32 -4 9 C-2.94124926 5.59687262 -1.99097846 2.98646769 0 0 Z " fill="#F4ECDF" transform="translate(230,200)"/>
<path d="M0 0 C0.66 0.66 1.32 1.32 2 2 C-0.31 4.64 -2.62 7.28 -5 10 C-5.33 8.68 -5.66 7.36 -6 6 C-4.1875 3.75 -4.1875 3.75 -2 2 C-1.34 2 -0.68 2 0 2 C0 1.34 0 0.68 0 0 Z " fill="#8A653B" transform="translate(270,153)"/>
<path d="M0 0 C1.32 0.66 2.64 1.32 4 2 C2.02 4.31 0.04 6.62 -2 9 C-2.33 7.68 -2.66 6.36 -3 5 C-2.01 4.67 -1.02 4.34 0 4 C-0.33 3.01 -0.66 2.02 -1 1 C-0.67 0.67 -0.34 0.34 0 0 Z " fill="#F9F1E4" transform="translate(243,120)"/>
<path d="M0 0 C1 2 1 2 0.22265625 4.6015625 C-0.16019531 5.59929687 -0.54304688 6.59703125 -0.9375 7.625 C-1.50791016 9.12933594 -1.50791016 9.12933594 -2.08984375 10.6640625 C-2.39019531 11.43492188 -2.69054687 12.20578125 -3 13 C-3.33 13 -3.66 13 -4 13 C-4.5497272 7.36529617 -2.95047835 4.61012242 0 0 Z " fill="#916D44" transform="translate(257,69)"/>
<path d="M0 0 C1.32 0.99 2.64 1.98 4 3 C3.34 4.32 2.68 5.64 2 7 C0.68 5.35 -0.64 3.7 -2 2 C-1.34 1.34 -0.68 0.68 0 0 Z " fill="#EDEDED" transform="translate(357,279)"/>
<path d="M0 0 C2 3 2 3 2 6 C2.66 6 3.32 6 4 6 C3.67 8.31 3.34 10.62 3 13 C2.67 13 2.34 13 2 13 C1.66127487 11.58461283 1.32925376 10.16762037 1 8.75 C0.814375 7.96109375 0.62875 7.1721875 0.4375 6.359375 C0 4 0 4 0 0 Z " fill="#916E47" transform="translate(231,259)"/>
<path d="M0 0 C0 3.97054597 -1.3139381 5.16471244 -4 8 C-6.140625 8.6484375 -6.140625 8.6484375 -8 9 C-7.04270084 7.87411986 -6.08412105 6.7493285 -5.125 5.625 C-4.59132813 4.99851563 -4.05765625 4.37203125 -3.5078125 3.7265625 C-2.38567993 2.44163349 -1.20628025 1.20628025 0 0 Z " fill="#906C45" transform="translate(290,158)"/>
<path d="M0 0 C0.66 0.33 1.32 0.66 2 1 C0.02 4.63 -1.96 8.26 -4 12 C-5 9 -5 9 -4.2578125 6.9921875 C-3.88398438 6.29351562 -3.51015625 5.59484375 -3.125 4.875 C-2.75632813 4.17117187 -2.38765625 3.46734375 -2.0078125 2.7421875 C-1 1 -1 1 0 0 Z " fill="#FBF1E4" transform="translate(182,124)"/>
<path d="M0 0 C0.66 0 1.32 0 2 0 C2.33 0.99 2.66 1.98 3 3 C2.67 3.66 2.34 4.32 2 5 C1.34 5 0.68 5 0 5 C0 5.99 0 6.98 0 8 C-0.99 7.67 -1.98 7.34 -3 7 C-2.34 7 -1.68 7 -1 7 C-1.020625 6.030625 -1.04125 5.06125 -1.0625 4.0625 C-1 1 -1 1 0 0 Z " fill="#DFE0E1" transform="translate(201,246)"/>
<path d="M0 0 C0.99 0.33 1.98 0.66 3 1 C2.01 3.97 1.02 6.94 0 10 C-2 6 -2 6 -1.125 2.75 C-0.75375 1.8425 -0.3825 0.935 0 0 Z " fill="#8F6738" transform="translate(203,180)"/>
<path d="M0 0 C0.99 0 1.98 0 3 0 C2.625 2.4375 2.625 2.4375 2 5 C1.01 5.495 1.01 5.495 0 6 C0 5.34 0 4.68 0 4 C-0.66 3.67 -1.32 3.34 -2 3 C-1.34 2.01 -0.68 1.02 0 0 Z " fill="#91632E" transform="translate(260,161)"/>
<path d="M0 0 C0.99 0.66 1.98 1.32 3 2 C-2.625 5.875 -2.625 5.875 -6 7 C-4.77065985 3.31197956 -3.06140622 2.27643027 0 0 Z " fill="#8C643A" transform="translate(221,88)"/>
<path d="M0 0 C0.33 0 0.66 0 1 0 C1.16873478 1.43725871 1.33490737 2.87481838 1.5 4.3125 C1.5928125 5.11300781 1.685625 5.91351563 1.78125 6.73828125 C2 9 2 9 2 12 C1.34 12.66 0.68 13.32 0 14 C-1.13016601 8.97703996 -0.77916092 5.02125926 0 0 Z " fill="#8A6234" transform="translate(275,61)"/>
<path d="M0 0 C0.33 0 0.66 0 1 0 C1.33 2.97 1.66 5.94 2 9 C1.34 9 0.68 9 0 9 C-0.33 10.32 -0.66 11.64 -1 13 C-2.12758089 9.61725734 -1.81750262 8.23221777 -1.0625 4.8125 C-0.86785156 3.91144531 -0.67320312 3.01039062 -0.47265625 2.08203125 C-0.23869141 1.05142578 -0.23869141 1.05142578 0 0 Z " fill="#8D6A3F" transform="translate(245,49)"/>
<path d="M0 0 C1.32 0 2.64 0 4 0 C4.33 1.32 4.66 2.64 5 4 C5.66 4 6.32 4 7 4 C6.67 5.32 6.34 6.64 6 8 C4.02 5.36 2.04 2.72 0 0 Z " fill="#8D6942" transform="translate(259,25)"/>
<path d="M0 0 C2.31 0 4.62 0 7 0 C7.33 0.99 7.66 1.98 8 3 C5.36 2.67 2.72 2.34 0 2 C0 1.34 0 0.68 0 0 Z " fill="#F7F6F8" transform="translate(197,492)"/>
<path d="M0 0 C0.66 0.33 1.32 0.66 2 1 C-0.97 4.96 -0.97 4.96 -4 9 C-4.33 8.01 -4.66 7.02 -5 6 C-4.34 6 -3.68 6 -3 6 C-2.67 4.68 -2.34 3.36 -2 2 C-1.34 2 -0.68 2 0 2 C0 1.34 0 0.68 0 0 Z " fill="#8C6B41" transform="translate(287,134)"/>
<path d="M0 0 C2.83374881 3.20336822 3.5205537 5.78087253 4 10 C3.34 10 2.68 10 2 10 C0.39644899 6.49223216 -0.22036864 3.85645121 0 0 Z " fill="#8E6940" transform="translate(328,95)"/>
<path d="M0 0 C4 2 4 2 5.3125 4.4375 C6 7 6 7 5 10 C3.35 6.7 1.7 3.4 0 0 Z " fill="#F7EFE0" transform="translate(294,40)"/>
<path d="M0 0 C3.90432869 1.95216435 6.03839944 3.87386607 9 7 C8.01 7.33 7.02 7.66 6 8 C4.02 5.36 2.04 2.72 0 0 Z " fill="#8F755A" transform="translate(231,15)"/>
<path d="M0 0 C0.66 1.32 1.32 2.64 2 4 C0.35 5.98 -1.3 7.96 -3 10 C-3 6.13304322 -1.58090029 3.4911548 0 0 Z " fill="#F4E8D9" transform="translate(329,160)"/>
</svg>
