<?xml version="1.0" encoding="UTF-8"?>
<svg version="1.1" xmlns="http://www.w3.org/2000/svg" width="500" height="500">
<path d="M0 0 C12.18504766 1.78998679 26.0508969 4.12452062 34.8984375 13.42578125 C36.7734375 16.73828125 36.7734375 16.73828125 37.8984375 19.42578125 C38.8884375 18.93078125 38.8884375 18.93078125 39.8984375 18.42578125 C46.1101512 17.89798858 51.6567865 17.68174482 56.8984375 21.42578125 C61.87557686 26.0635702 63.48792585 30.64707606 63.8984375 37.42578125 C63.64185602 40.2953047 62.94163567 42.74715262 61.8984375 45.42578125 C61.5271875 46.39451172 61.5271875 46.39451172 61.1484375 47.3828125 C55.92660542 59.20186993 46.19284172 66.11337405 34.4609375 70.67578125 C30.70007755 71.98783267 27.15409564 72.7208779 23.2109375 73.23828125 C18.03260535 74.0586111 15.66229833 75.99977366 11.99609375 79.61328125 C1.79620153 88.42659595 -12.04073578 89.22689796 -24.82958984 88.61669922 C-36.92860961 87.59999672 -48.11250144 80.33588325 -56.26171875 71.63671875 C-68.63928626 56.76261427 -72.18290829 39.43089449 -72.46484375 20.51953125 C-71.91463246 15.83386095 -70.19827761 13.43278177 -66.76171875 10.27734375 C-58.75164667 4.70205129 -49.66233412 2.56154667 -40.1015625 1.42578125 C-37.1015625 7.17578125 -37.1015625 7.17578125 -37.1015625 9.42578125 C-38.92880859 9.89757812 -38.92880859 9.89757812 -40.79296875 10.37890625 C-42.41680506 10.81067776 -44.04049535 11.24299873 -45.6640625 11.67578125 C-46.46392578 11.88074219 -47.26378906 12.08570312 -48.08789062 12.296875 C-53.30810096 13.70313574 -57.52049156 15.54800783 -62.1015625 18.42578125 C-62.1015625 19.41578125 -62.1015625 20.40578125 -62.1015625 21.42578125 C-47.74780872 28.45509618 -34.69318959 29.61300167 -18.81665039 29.61108398 C-16.80268058 29.61326649 -14.78926393 29.63148217 -12.77539062 29.65039062 C-0.35332305 29.66870326 15.76268078 29.67688479 25.8984375 21.42578125 C25.81065777 19.49129937 25.81065777 19.49129937 24.8984375 17.42578125 C14.80796281 11.31750058 3.04918705 10.31642332 -8.44921875 9.76953125 C-11.1015625 9.42578125 -11.1015625 9.42578125 -13.1015625 7.42578125 C-9.53516367 1.74273922 -6.80908955 -0.52141677 0 0 Z M36.8984375 30.42578125 C35.55801654 33.66557043 34.96572311 36.98650728 34.3359375 40.42578125 C32.6354739 48.604737 30.56807941 55.88349597 26.8984375 63.42578125 C36.98071654 61.8254195 43.97335075 57.39775467 50.45703125 49.5 C54.10535699 44.24997028 55.74555599 38.83967836 54.8984375 32.42578125 C53.10281345 29.67249104 51.84588828 27.89950664 48.8984375 26.42578125 C43.58759896 25.82227687 40.89668886 26.90288342 36.8984375 30.42578125 Z M0.7734375 44.4921875 C-2.65283014 47.93818636 -5.91182431 51.53274768 -9.16650391 55.13989258 C-18.45141868 65.38757539 -27.31134476 71.97912972 -41.1015625 74.42578125 C-35.41380816 78.21761748 -28.74587571 78.01917274 -22.1015625 77.42578125 C-13.8824218 75.73559368 -7.28978298 73.10938289 -1.1015625 67.42578125 C-0.13863281 66.59820312 -0.13863281 66.59820312 0.84375 65.75390625 C6.66510554 60.41195646 10.62930399 53.99383425 14.72216797 47.32080078 C15.93407315 45.36837072 17.17771174 43.44003005 18.43359375 41.515625 C18.84617432 40.88285645 19.25875488 40.25008789 19.68383789 39.59814453 C20.47717253 38.38334588 21.27187268 37.1694376 22.06811523 35.95654297 C23.69130532 33.45114449 24.94906752 31.2738912 25.8984375 28.42578125 C17.12161172 28.42578125 6.71546818 38.70790984 0.7734375 44.4921875 Z " fill="#41200D" transform="translate(410.1015625,112.57421875)"/>
<path d="M0 0 C2.30990226 2.90600607 3.10045944 4.09586501 2.6875 7.8125 C2.460625 8.534375 2.23375 9.25625 2 10 C0.68 10.33 -0.64 10.66 -2 11 C-1.67 9.02 -1.34 7.04 -1 5 C-5.95 4.505 -5.95 4.505 -11 4 C-11.34144043 4.65782471 -11.68288086 5.31564941 -12.03466797 5.9934082 C-13.64756415 9.10005698 -15.26115862 12.20634212 -16.875 15.3125 C-17.46563232 16.44937256 -18.05626465 17.58624512 -18.66479492 18.75756836 C-22.19068116 25.53841183 -25.73884938 32.30673418 -29.3125 39.0625 C-33.67232834 47.3108716 -37.86933373 55.6348239 -42 64 C-41.35562988 63.85900879 -40.71125977 63.71801758 -40.04736328 63.57275391 C-37.07344065 62.92259105 -34.09922269 62.27378877 -31.125 61.625 C-30.11179687 61.40328125 -29.09859375 61.1815625 -28.0546875 60.953125 C-27.04921875 60.73398438 -26.04375 60.51484375 -25.0078125 60.2890625 C-24.00314941 60.06105957 -22.99848633 59.83305664 -21.96337891 59.59814453 C-19 59 -19 59 -16.17333984 58.71044922 C-11.20225936 58.19759937 -11.20225936 58.19759937 -7.47216797 55.15771484 C-6.22326099 52.77131052 -5.27302648 50.41357702 -4.375 47.875 C-4.03855469 47.02550781 -3.70210938 46.17601562 -3.35546875 45.30078125 C-2.53385306 43.21152994 -1.75141098 41.11529519 -1 39 C-0.34 39 0.32 39 1 39 C0.39363767 44.76044212 -1.75658279 49.72014369 -4 55 C-1.1641438 52.53113696 0.19600752 49.9005012 1.75 46.5 C2.19859375 45.5409375 2.6471875 44.581875 3.109375 43.59375 C4.31570134 40.93513308 4.31570134 40.93513308 3 38 C2.34 38 1.68 38 1 38 C1.57967445 34.53866736 2.45530074 31.72117828 4.0390625 28.59375 C4.45140137 27.77326172 4.86374023 26.95277344 5.28857422 26.10742188 C5.72959473 25.24697266 6.17061523 24.38652344 6.625 23.5 C7.30006592 22.1706543 7.30006592 22.1706543 7.98876953 20.81445312 C9.31826547 18.20566665 10.65786737 15.60230297 12 13 C12.54043945 11.94232422 12.54043945 11.94232422 13.09179688 10.86328125 C18.66818784 -0.02448408 18.66818784 -0.02448408 23 -4 C25.9375 -3.1875 25.9375 -3.1875 29 -2 C30.19142516 1.57427548 29.46222987 2.83821829 27.92922974 6.15359497 C26.51455891 8.96458478 24.94564568 11.66525912 23.33984375 14.37109375 C19.06746596 21.70132621 15.29743944 29.23996441 11.61547852 36.88061523 C10.54653031 39.09559092 9.46606097 41.30470179 8.38476562 43.51367188 C7.69462474 44.93716676 7.00514606 46.36098294 6.31640625 47.78515625 C5.9966835 48.43726578 5.67696075 49.08937531 5.34754944 49.76124573 C2.23855771 56.09919309 2.23855771 56.09919309 2.9375 62.8125 C3.288125 63.534375 3.63875 64.25625 4 65 C1.46384239 67.91658125 1.46384239 67.91658125 -0.98876953 68.35766602 C-3.12284606 68.80686681 -3.12284606 68.80686681 -4.09326172 70.66381836 C-4.36928223 71.38190674 -4.64530273 72.09999512 -4.9296875 72.83984375 C-5.24736084 73.64744141 -5.56503418 74.45503906 -5.89233398 75.28710938 C-6.21661377 76.16173828 -6.54089355 77.03636719 -6.875 77.9375 C-7.21797119 78.82888672 -7.56094238 79.72027344 -7.91430664 80.63867188 C-11.68530974 90.55913553 -15.49946275 100.67373362 -18 111 C-21.37462715 110.45276317 -23.08235 109.9451 -26 108 C-25.46061029 102.51412273 -24.4528136 97.83118625 -22.56640625 92.61328125 C-22.32840805 91.94838181 -22.09040985 91.28348236 -21.84519958 90.59843445 C-21.09198898 88.50025664 -20.32738625 86.40644564 -19.5625 84.3125 C-19.05329866 82.89805185 -18.54482908 81.48334004 -18.03710938 80.06835938 C-16.09817249 74.6823003 -14.15801061 69.30309616 -12 64 C-12.8878418 64.21205078 -13.77568359 64.42410156 -14.69042969 64.64257812 C-17.99200843 65.42887403 -21.29448761 66.21114455 -24.59765625 66.99072266 C-26.02577122 67.32863643 -27.45351105 67.66813979 -28.88085938 68.00927734 C-30.93522601 68.49997912 -32.99088384 68.9849062 -35.046875 69.46875 C-36.28276367 69.76201172 -37.51865234 70.05527344 -38.79199219 70.35742188 C-42 71 -42 71 -46 71 C-46.12383057 71.70721191 -46.24766113 72.41442383 -46.37524414 73.14306641 C-47.02683937 76.12273324 -47.94378538 78.84890427 -48.99609375 81.7109375 C-49.38990234 82.79117188 -49.78371094 83.87140625 -50.18945312 84.984375 C-50.60130859 86.10328125 -51.01316406 87.2221875 -51.4375 88.375 C-56.10792929 100.37700068 -56.10792929 100.37700068 -58.625 112.9375 C-58.73714844 114.09572266 -58.73714844 114.09572266 -58.8515625 115.27734375 C-58.90054688 115.84582031 -58.94953125 116.41429687 -59 117 C-60.8125 117.6875 -60.8125 117.6875 -63 118 C-65.10737457 116.55836421 -65.86179042 115.56550753 -66.46875 113.08203125 C-66.65475943 99.5730965 -60.0674605 86.25618353 -55 74 C-61.27 75.98 -67.54 77.96 -74 80 C-75 79 -75 79 -75.0625 76.4375 C-75.041875 75.633125 -75.02125 74.82875 -75 74 C-67.11932708 70.6733225 -59.71685285 67.56415736 -51 68 C-50.88591797 67.28521484 -50.77183594 66.57042969 -50.65429688 65.83398438 C-49.95882281 62.82164744 -48.90381176 60.42303519 -47.53125 57.65625 C-47.04269531 56.65722656 -46.55414063 55.65820312 -46.05078125 54.62890625 C-45.01692708 52.54296875 -43.98307292 50.45703125 -42.94921875 48.37109375 C-42.46066406 47.37207031 -41.97210938 46.37304688 -41.46875 45.34375 C-41.01951172 44.43818359 -40.57027344 43.53261719 -40.10742188 42.59960938 C-38.53897535 38.91777107 -38.05058386 35.51197657 -37.65795898 31.53808594 C-36.93270864 27.63814979 -35.77297646 25.59181163 -33.47265625 22.390625 C-32.40821289 20.88822266 -32.40821289 20.88822266 -31.32226562 19.35546875 C-30.57654297 18.33066406 -29.83082031 17.30585937 -29.0625 16.25 C-27.9497168 14.68958984 -27.9497168 14.68958984 -26.81445312 13.09765625 C-25.44229932 11.17440168 -24.0646993 9.25501277 -22.67993164 7.34082031 C-21.41939309 5.58438322 -20.19923421 3.79885131 -19 2 C-31.47396767 1.61900777 -43.43385158 2.2239023 -55.71069336 4.59130859 C-58 5 -58 5 -60.38500977 5.20947266 C-63.91476854 5.64669686 -66.18385657 6.08531371 -68.60546875 8.79931641 C-70.15920999 11.34302819 -71.43565414 13.91969161 -72.6875 16.625 C-73.42987915 18.13646606 -73.42987915 18.13646606 -74.18725586 19.6784668 C-75.84109691 23.09798177 -77.42893271 26.54169628 -79 30 C-79.2822644 30.62114685 -79.56452881 31.2422937 -79.85534668 31.88226318 C-84.08679032 41.21797103 -88.14942603 50.62337863 -92.16748047 60.05249023 C-93.48667056 63.1384666 -94.822637 66.21710457 -96.15625 69.296875 C-105.42676221 90.55743673 -105.42676221 90.55743673 -111 113 C-112.98 113.495 -112.98 113.495 -115 114 C-116.5625 112.5625 -116.5625 112.5625 -118 110 C-117.67100883 102.40259933 -115.55748622 95.66758116 -113.125 88.5 C-112.72498779 87.31438477 -112.32497559 86.12876953 -111.9128418 84.90722656 C-107.66338412 72.60138608 -102.44137883 60.815708 -97 49 C-94.74958416 44.09906404 -92.50745783 39.19441509 -90.27230835 34.28649902 C-89.32822761 32.2218946 -88.37425613 30.16207981 -87.41918945 28.10253906 C-86.83771545 26.832837 -86.25656348 25.56298739 -85.67578125 24.29296875 C-84.9010144 22.61497192 -84.9010144 22.61497192 -84.1105957 20.90307617 C-82.76179683 17.8953846 -82.76179683 17.8953846 -83 14 C-81.5 11.75 -81.5 11.75 -80 10 C-84.9571459 10.57898008 -89.36066997 11.64556205 -94.0703125 13.28515625 C-95.39191311 13.73767103 -96.71352812 14.19014375 -98.03515625 14.64257812 C-100.08751827 15.35369277 -102.13896525 16.06736918 -104.18994141 16.7824707 C-106.1896023 17.47722774 -108.1922592 18.16275331 -110.1953125 18.84765625 C-111.38141113 19.26023682 -112.56750977 19.67281738 -113.78955078 20.09790039 C-116.74031272 20.92703084 -118.96341266 21.27993214 -122 21 C-123 20 -123 20 -123.0625 16.4375 C-123.041875 15.303125 -123.02125 14.16875 -123 13 C-115.24648521 9.76936884 -107.13915588 7.97630196 -99 6 C-98.24404541 5.81584534 -97.48809082 5.63169067 -96.70922852 5.44195557 C-15.82112822 -14.1984484 -15.82112822 -14.1984484 0 0 Z M7 29 C8 31 8 31 8 31 Z M6 31 C7 33 7 33 7 33 Z M5 33 C6 35 6 35 6 35 Z M4 35 C5 37 5 37 5 37 Z M-42 52 C-41 54 -41 54 -41 54 Z M-43 54 C-45.475 59.94 -45.475 59.94 -48 66 C-47.34 66 -46.68 66 -46 66 C-45.30062798 64.5682384 -44.61587282 63.12932968 -43.9375 61.6875 C-43.55464844 60.88699219 -43.17179687 60.08648437 -42.77734375 59.26171875 C-41.70264486 56.87971247 -41.70264486 56.87971247 -43 54 Z M-9 67 C-9.66 68.65 -10.32 70.3 -11 72 C-10.01 71.67 -9.02 71.34 -8 71 C-7.26676204 68.98491642 -7.26676204 68.98491642 -7 67 C-7.66 67 -8.32 67 -9 67 Z M-50 72 C-53.7650841 77.05072258 -55.77957488 82.25204633 -57.8125 88.1875 C-58.13669922 89.08919922 -58.46089844 89.99089844 -58.79492188 90.91992188 C-59.09591797 91.78552734 -59.39691406 92.65113281 -59.70703125 93.54296875 C-59.9800708 94.32696045 -60.25311035 95.11095215 -60.53442383 95.91870117 C-61.22745923 98.17711955 -61.22745923 98.17711955 -60 101 C-58.4052241 97.19546679 -56.82059941 93.3868846 -55.24536133 89.57421875 C-54.70778991 88.27715915 -54.16743323 86.98125033 -53.62426758 85.68652344 C-52.84509896 83.82790387 -52.07667936 81.96478952 -51.30859375 80.1015625 C-50.60947876 78.42054443 -50.60947876 78.42054443 -49.89624023 76.70556641 C-48.67037249 74.07110174 -48.67037249 74.07110174 -50 72 Z M-13 75 C-12 77 -12 77 -12 77 Z M-14 77 C-13 80 -13 80 -13 80 Z M-15 80 C-14 82 -14 82 -14 82 Z M-16 82 C-15 85 -15 85 -15 85 Z M-17 85 C-16 88 -16 88 -16 88 Z M-18 88 C-17 90 -17 90 -17 90 Z M-19 91 C-18 93 -18 93 -18 93 Z M-21 97 C-20 99 -20 99 -20 99 Z M-62 101 C-62.33 102.98 -62.66 104.96 -63 107 C-62.34 106.34 -61.68 105.68 -61 105 C-61.3185177 102.89179203 -61.3185177 102.89179203 -62 101 Z " fill="#865A29" transform="translate(174,99)"/>
<path d="M0 0 C1.49466797 0.01353516 1.49466797 0.01353516 3.01953125 0.02734375 C4.09267578 0.04474609 4.09267578 0.04474609 5.1875 0.0625 C6.1775 3.0325 6.1775 3.0325 7.1875 6.0625 C5.16889092 8.08110908 1.20547229 7.57254538 -1.57421875 7.78125 C-2.35763138 7.84405151 -3.14104401 7.90685303 -3.94819641 7.97155762 C-6.46514542 8.17283473 -8.98251194 8.36809011 -11.5 8.5625 C-13.99957295 8.75757217 -16.49901775 8.95399134 -18.99824524 9.15344238 C-20.55515023 9.27749269 -22.11226408 9.39895722 -23.66960144 9.51745605 C-27.76576005 9.84168554 -31.76995507 10.33201241 -35.8125 11.0625 C-37.65209733 11.35312656 -39.49194557 11.64216906 -41.33203125 11.9296875 C-43.42971977 12.26542341 -45.52737509 12.60136683 -47.625 12.9375 C-48.66720703 13.09863281 -49.70941406 13.25976562 -50.78320312 13.42578125 C-63.53598226 15.16768956 -63.53598226 15.16768956 -73.25 22.8125 C-73.99121094 23.79476562 -74.73242188 24.77703125 -75.49609375 25.7890625 C-76.27150561 26.8778824 -77.04354191 27.9691127 -77.8125 29.0625 C-78.2161377 29.62549805 -78.61977539 30.18849609 -79.03564453 30.76855469 C-85.8855929 40.388998 -91.47999657 50.53917801 -96.8125 61.0625 C-95.92046875 60.68996094 -95.0284375 60.31742188 -94.109375 59.93359375 C-92.93890625 59.46050781 -91.7684375 58.98742187 -90.5625 58.5 C-89.40234375 58.02433594 -88.2421875 57.54867187 -87.046875 57.05859375 C-83.94983356 56.10479476 -82.73928299 55.85266644 -79.8125 57.0625 C-79.72265625 59.7890625 -79.72265625 59.7890625 -80.8125 63.0625 C-83.74008684 65.05272832 -86.94527444 66.20571687 -90.25 67.4375 C-91.57741211 67.96923828 -91.57741211 67.96923828 -92.93164062 68.51171875 C-99.39723094 71.0625 -99.39723094 71.0625 -101.8125 71.0625 C-104.43058811 79.64141371 -106.20235738 87.74085453 -106.1875 96.75 C-106.18878906 97.5032959 -106.19007813 98.2565918 -106.19140625 99.03271484 C-106.1109584 103.08893186 -105.7972209 106.48315851 -103.8125 110.0625 C-99.1528376 111.92636496 -94.9705285 110.72130356 -90.3828125 109.1875 C-76.96963502 103.31668675 -66.88167404 89.28498268 -58.22705078 77.90478516 C-56.75377929 75.98602322 -55.25445211 74.09050105 -53.74609375 72.19921875 C-53.24464844 71.56927002 -52.74320312 70.93932129 -52.2265625 70.2902832 C-51.26633238 69.08539127 -50.30419356 67.88201715 -49.33984375 66.68041992 C-47.15788786 63.92578178 -45.20984641 61.29929113 -43.8125 58.0625 C-43.1525 58.3925 -42.4925 58.7225 -41.8125 59.0625 C-43.63929921 66.36969683 -46.86329672 71.20714971 -51.55859375 77.0703125 C-53.55687665 79.72314561 -55.17674971 82.40355787 -56.78295898 85.30419922 C-58.49824468 88.23364849 -60.54091647 90.88826925 -62.625 93.5625 C-63.28085083 94.41050171 -63.28085083 94.41050171 -63.94995117 95.27563477 C-66.8502272 98.972649 -69.88350199 102.36380187 -73.3046875 105.578125 C-74.79679091 107.04703509 -75.99818073 108.57538084 -77.25 110.25 C-82.19954791 115.68243063 -88.42518248 117.78485102 -95.625 118.375 C-100.05481938 118.28442748 -103.45945297 116.96574804 -106.8125 114.0625 C-114.00366198 105.63476255 -114.29902878 95.6715303 -113.8125 85.0625 C-113.56308677 82.21258706 -113.28051992 79.37481119 -112.93359375 76.53515625 C-112.80323069 73.87322663 -113.18887105 71.64478578 -113.8125 69.0625 C-113.07257813 68.75441406 -112.33265625 68.44632812 -111.5703125 68.12890625 C-107.58931728 65.14597923 -106.50675872 61.53155393 -104.6875 57 C-101.61114253 49.75207539 -98.2165007 42.94224324 -94.0625 36.25 C-93.61503418 35.52868896 -93.16756836 34.80737793 -92.70654297 34.06420898 C-89.89573191 29.61332357 -86.90711244 25.32037503 -83.8125 21.0625 C-87.7301385 22.68516405 -91.64643818 24.31103496 -95.5625 25.9375 C-96.67367187 26.39769531 -97.78484375 26.85789062 -98.9296875 27.33203125 C-99.99960938 27.77675781 -101.06953125 28.22148438 -102.171875 28.6796875 C-103.15639648 29.08815918 -104.14091797 29.49663086 -105.15527344 29.91748047 C-107.76193843 31.00124142 -107.76193843 31.00124142 -109.99316406 32.20361328 C-112.34162898 33.31229546 -114.24939671 33.20489463 -116.8125 33.0625 C-118.16689668 30.35370665 -117.87751451 28.05316732 -117.8125 25.0625 C-82.31263141 8.17119717 -39.26872105 -0.47311712 0 0 Z M-96.8125 49.0625 C-96.4825 50.0525 -96.1525 51.0425 -95.8125 52.0625 C-95.4825 51.0725 -95.1525 50.0825 -94.8125 49.0625 C-95.4725 49.0625 -96.1325 49.0625 -96.8125 49.0625 Z M-97.8125 53.0625 C-96.8125 55.0625 -96.8125 55.0625 -96.8125 55.0625 Z M-101.8125 60.0625 C-100.8125 63.0625 -100.8125 63.0625 -100.8125 63.0625 Z M-107.8125 76.0625 C-109.89636889 81.34163453 -110.39160004 86.45788469 -110.8125 92.0625 C-107.99765955 89.24765955 -108.18492958 86.8458753 -107.6875 82.9375 C-107.51992187 81.65617187 -107.35234375 80.37484375 -107.1796875 79.0546875 C-107.05851563 78.06726563 -106.93734375 77.07984375 -106.8125 76.0625 C-107.1425 76.0625 -107.4725 76.0625 -107.8125 76.0625 Z " fill="#865826" transform="translate(320.8125,93.9375)"/>
<path d="M0 0 C7.88596588 8.58768318 9.56971936 19.26202203 9.28515625 30.5703125 C8.52667165 39.69290814 5.93632488 48.24730209 -0.78515625 54.71875 C-8.09325869 60.64659452 -15.60063205 62.62908375 -24.9453125 62.34375 C-33.81652665 61.3454548 -41.15226019 57.787802 -47 51 C-53.77341741 40.91064093 -54.29510775 28.63042389 -52.53515625 16.90234375 C-50.47921979 8.25281227 -46.3322171 0.77623124 -38.71484375 -4.07421875 C-26.52593639 -10.65456282 -10.52070461 -8.88160932 0 0 Z M-29 -2 C-37.45381866 9.51948916 -36.97719178 25.99129845 -35.3125 39.5625 C-34.18493933 46.27188581 -32.22060952 53.06982621 -27.05078125 57.7734375 C-24.90658097 59.29407427 -24.90658097 59.29407427 -21.5625 59 C-17.26547369 57.79381718 -15.73710376 56.49741035 -13 53 C-10.58038056 48.07002539 -9.33458745 43.53932969 -8.75 38.0625 C-8.66991699 37.32813721 -8.58983398 36.59377441 -8.50732422 35.8371582 C-7.34880256 23.72192441 -7.2480568 9.6934907 -14.19921875 -0.8125 C-16.03843273 -2.85478177 -17.90945522 -3.96285342 -20.4375 -5 C-24.24936568 -5 -25.8902169 -4.26755018 -29 -2 Z " fill="#895922" transform="translate(167,278)"/>
<path d="M0 0 C4.9255044 -0.07491408 9.85066732 -0.12895771 14.77661133 -0.16479492 C16.44756864 -0.17975584 18.11848755 -0.20013204 19.78930664 -0.22631836 C42.59563813 -0.57445452 42.59563813 -0.57445452 50.5 5.25 C55.60725297 10.86797827 56.58834422 15.85560697 56.34375 23.28515625 C55.60959006 29.08335121 53.3479685 33.25554654 48.75 36.875 C40.41100596 42.07811183 31.46533747 41.16902388 22 41 C22 48.26 22 55.52 22 63 C23.65 63.33 25.3 63.66 27 64 C27 64.66 27 65.32 27 66 C18.09 66 9.18 66 0 66 C0 65.34 0 64.68 0 64 C2.475 63.505 2.475 63.505 5 63 C5 43.2 5 23.4 5 3 C3.35 2.67 1.7 2.34 0 2 C0 1.34 0 0.68 0 0 Z M22 3 C22 14.55 22 26.1 22 38 C28.91843747 38.24375049 28.91843747 38.24375049 34 35 C39.05519902 29.5235344 39.2958961 24.99025983 39.21875 17.7578125 C38.82579093 12.80372135 37.22828385 9.45858707 34 5.625 C29.95386595 2.33751608 27.5288167 3 22 3 Z " fill="#895822" transform="translate(283,403)"/>
<path d="M0 0 C16.83 0 33.66 0 51 0 C51 5.94 51 11.88 51 18 C46 17 46 17 43.75 14.4375 C42 11 42 11 41 3 C34.73 3 28.46 3 22 3 C22 12.57 22 22.14 22 32 C25.3 32 28.6 32 32 32 C32.103125 31.0925 32.20625 30.185 32.3125 29.25 C33.00414949 25.98038425 33.82134921 24.46282263 36 22 C37.32 22.33 38.64 22.66 40 23 C40 29.93 40 36.86 40 44 C38.35 44 36.7 44 35 44 C32 38.375 32 38.375 32 35 C28.7 35 25.4 35 22 35 C22 44.24 22 53.48 22 63 C28.93 63 35.86 63 43 63 C43.33 60.36 43.66 57.72 44 55 C45.75 51.5 45.75 51.5 48 49 C49.65 49 51.3 49 53 49 C53 54.61 53 60.22 53 66 C35.51 66 18.02 66 0 66 C0 65.34 0 64.68 0 64 C2.475 63.505 2.475 63.505 5 63 C5 43.2 5 23.4 5 3 C3.35 2.67 1.7 2.34 0 2 C0 1.34 0 0.68 0 0 Z " fill="#8C581F" transform="translate(359,272)"/>
<path d="M0 0 C16.83 0 33.66 0 51 0 C51 5.94 51 11.88 51 18 C46 17 46 17 43.75 13.8125 C41.86354387 10.38749972 41.70069497 8.20416984 41 4 C34.73 3.67 28.46 3.34 22 3 C22 12.57 22 22.14 22 32 C25.3 32 28.6 32 32 32 C32.433125 30.3603125 32.433125 30.3603125 32.875 28.6875 C34 25 34 25 36 22 C37.32 22 38.64 22 40 22 C40 29.26 40 36.52 40 44 C38.35 43.67 36.7 43.34 35 43 C32 38.13793103 32 38.13793103 32 35 C28.7 35 25.4 35 22 35 C22 44.24 22 53.48 22 63 C28.93 63 35.86 63 43 63 C43.66 60.03 44.32 57.06 45 54 C46.875 50.9375 46.875 50.9375 49 49 C50.32 49 51.64 49 53 49 C53 54.61 53 60.22 53 66 C35.51 66 18.02 66 0 66 C0 65.34 0 64.68 0 64 C2.97 63.505 2.97 63.505 6 63 C5.67 43.53 5.34 24.06 5 4 C2.525 3.01 2.525 3.01 0 2 C0 1.34 0 0.68 0 0 Z " fill="#885924" transform="translate(298,272)"/>
<path d="M0 0 C8.23702717 -0.73218019 15.92643545 1.96858638 22.375 7.125 C27.94574233 12.42120883 31.56559666 19.77045213 32.203125 27.4453125 C32.4869792 43.67231098 24.90196067 53.67806011 14 65 C13.14535156 65.80308594 12.29070312 66.60617188 11.41015625 67.43359375 C3.51771701 74.8512998 -2.59392412 83.23905093 -3.19140625 94.41015625 C-2.88417518 98.56718077 -1.79738283 102.45434211 -0.59375 106.43359375 C0 109 0 109 -1 112 C-9.09214868 99.93129716 -13.79936135 87.69758712 -12 73 C-9.90317159 65.01096662 -4.49079664 58.83366238 0.84375 52.73828125 C13.4387496 38.66217878 13.4387496 38.66217878 17.33984375 20.73046875 C16.65168273 15.20145093 14.29311188 10.23043001 10.28515625 6.33203125 C7.09856903 3.9542933 3.78313518 2.26104506 0 1 C0 0.67 0 0.34 0 0 Z " fill="#895822" transform="translate(384,22)"/>
<path d="M0 0 C8.91 0 17.82 0 27 0 C26.67 0.99 26.34 1.98 26 3 C24.68 3 23.36 3 22 3 C22.06723486 9.8322163 22.15713301 16.66387091 22.26245117 23.49560547 C22.29561153 25.81747755 22.32367087 28.13942851 22.34643555 30.46142578 C22.38014472 33.80795768 22.43247009 37.15377244 22.48828125 40.5 C22.49467117 41.5305249 22.5010611 42.5610498 22.50764465 43.62280273 C22.64187014 50.27104467 23.0388211 56.83460186 27.8125 61.9375 C32.1830063 64.06031735 35.53128281 64.37777737 40.125 62.875 C45.33144416 60.66350086 47.2950243 57.57196244 49.5871582 52.4609375 C51.37585652 47.56190431 51.38192351 42.97887648 51.29296875 37.8125 C51.28660149 36.39783447 51.28660149 36.39783447 51.28010559 34.95458984 C51.2634357 31.96942482 51.22580575 28.98495782 51.1875 26 C51.17243804 23.96485356 51.15875229 21.92969645 51.14648438 19.89453125 C51.11357055 14.9294223 51.06186999 9.96482913 51 5 C49.02 4.34 47.04 3.68 45 3 C45 2.01 45 1.02 45 0 C50.94 0 56.88 0 63 0 C63 0.99 63 1.98 63 3 C61.02 3.66 59.04 4.32 57 5 C56.9906543 6.24499268 56.98130859 7.48998535 56.97167969 8.77270508 C56.93149289 13.43793148 56.86565701 18.10251814 56.79248047 22.76733398 C56.76443607 24.77766639 56.74314021 26.78810567 56.72900391 28.79858398 C56.54239152 53.84818666 56.54239152 53.84818666 50.05834961 61.20214844 C44.79087314 66.27073925 40.00486829 68.0479466 32.75 68.3125 C24.71478389 68.148516 17.26209548 66.2184129 11 61 C5.10053216 53.6256652 4.70608184 46.5301873 4.8046875 37.47265625 C4.80893234 35.98928017 4.80893234 35.98928017 4.81326294 34.47593689 C4.82439858 31.33799805 4.84949097 28.20035161 4.875 25.0625 C4.88503835 22.92643643 4.8941627 20.79036836 4.90234375 18.65429688 C4.9243162 13.43609927 4.95772746 8.21807054 5 3 C3.35 2.67 1.7 2.34 0 2 C0 1.34 0 0.68 0 0 Z " fill="#8A5821" transform="translate(215,403)"/>
<path d="M0 0 C16.83 0 33.66 0 51 0 C51 5.94 51 11.88 51 18 C46 17 46 17 43.75 13.875 C41.6417523 10.125084 41.67372599 7.71608193 41 3 C34.73 3 28.46 3 22 3 C22 12.57 22 22.14 22 32 C25.3 32 28.6 32 32 32 C32.103125 31.278125 32.20625 30.55625 32.3125 29.8125 C33.07996416 26.67287388 34.02496481 24.5602308 36 22 C37.32 22 38.64 22 40 22 C40 29.26 40 36.52 40 44 C38.35 44 36.7 44 35 44 C32 38.375 32 38.375 32 35 C28.7 35 25.4 35 22 35 C22 44.24 22 53.48 22 63 C23.98 63.33 25.96 63.66 28 64 C28 64.66 28 65.32 28 66 C18.76 66 9.52 66 0 66 C0 65.34 0 64.68 0 64 C2.97 63.505 2.97 63.505 6 63 C5.67 43.53 5.34 24.06 5 4 C2.525 3.01 2.525 3.01 0 2 C0 1.34 0 0.68 0 0 Z " fill="#8A5923" transform="translate(184,272)"/>
<path d="M0 0 C16.83 0 33.66 0 51 0 C51 5.94 51 11.88 51 18 C46 17 46 17 43.75 13.8125 C41.86354387 10.38749972 41.70069497 8.20416984 41 4 C34.73 3.67 28.46 3.34 22 3 C22 12.57 22 22.14 22 32 C25.3 32 28.6 32 32 32 C32.433125 30.3603125 32.433125 30.3603125 32.875 28.6875 C34 25 34 25 36 22 C37.32 22 38.64 22 40 22 C40 29.26 40 36.52 40 44 C38.35 43.67 36.7 43.34 35 43 C32 38.13793103 32 38.13793103 32 35 C28.7 35 25.4 35 22 35 C22 44.24 22 53.48 22 63 C23.98 63.33 25.96 63.66 28 64 C28 64.66 28 65.32 28 66 C18.76 66 9.52 66 0 66 C0 65.34 0 64.68 0 64 C2.97 63.505 2.97 63.505 6 63 C5.67 43.53 5.34 24.06 5 4 C2.525 3.01 2.525 3.01 0 2 C0 1.34 0 0.68 0 0 Z " fill="#885925" transform="translate(241,272)"/>
<path d="M0 0 C0.763125 -0.66 1.52625 -1.32 2.3125 -2 C5 -4 5 -4 8 -4 C8 2.27 8 8.54 8 15 C6.35 15 4.7 15 3 15 C2.69707031 14.32453125 2.39414063 13.6490625 2.08203125 12.953125 C-0.69481579 7.04057683 -2.97815292 3.01092354 -9 0 C-12.58370253 -0.27046812 -15.30290045 -0.25938588 -18.6875 1 C-25.74709546 7.10559607 -26.20671533 16.24412043 -27 25 C-27.72111392 35.26085011 -27.14093176 47.37294708 -21 56 C-17.59066591 59.4990534 -14.90720615 60.90378027 -10 61 C-4.34137417 59.92270651 -0.71699098 57.41615155 2.8125 52.91796875 C4.60652525 50.02038192 5.32046914 47.32970119 6 44 C6.99 44 7.98 44 9 44 C9.08876177 49.47786917 8.37414411 53.14552162 4.75 57.375 C-0.64658285 62.92608624 -5.43501157 65.11548125 -13.125 65.25 C-22.5717383 65.12421121 -30.08811623 62.52617597 -37 56 C-43.77085067 48.96466297 -45.15388019 39.9600821 -45.375 30.5 C-45.12090085 20.06076001 -43.08027509 10.96337286 -36 3 C-25.53236287 -6.50861385 -12.01296058 -6.95487192 0 0 Z " fill="#885923" transform="translate(100,275)"/>
<path d="M0 0 C0.86625 -1.0209375 0.86625 -1.0209375 1.75 -2.0625 C2.4925 -2.701875 3.235 -3.34125 4 -4 C5.32 -3.67 6.64 -3.34 8 -3 C8 2.94 8 8.88 8 15 C6.35 15 4.7 15 3 15 C1.33984375 12.953125 1.33984375 12.953125 -0.0625 10.25 C-2.5820399 5.47613492 -4.69981307 1.76672898 -10 0 C-13.85910906 -0.35732491 -16.23992388 -0.40655234 -19.6875 1.4375 C-26.97487692 9.51270145 -27.180546 19.47190847 -27.1875 29.8125 C-27.20586914 31.23272461 -27.20586914 31.23272461 -27.22460938 32.68164062 C-27.24024538 40.25467987 -26.88906098 47.95439772 -22.5625 54.4375 C-22.15128906 55.07558594 -21.74007812 55.71367187 -21.31640625 56.37109375 C-19.35082925 58.80327657 -17.3317709 59.89730901 -14.375 60.8125 C-9.70670079 61.07184996 -6.10110766 60.27431731 -2 58 C2.11578228 54.03277037 4.61115225 49.55539102 6 44 C6.99 44 7.98 44 9 44 C8.75290654 50.918617 6.90453425 55.06262289 2 60 C-5.33163316 65.48292394 -12.95023823 65.78311283 -21.74609375 64.64453125 C-30.38566342 62.81857965 -36.00322949 58.00408666 -41.44140625 51.1953125 C-46.81264476 42.27628176 -46.75865574 28.83879774 -44.81640625 18.96875 C-42.42264047 10.26414716 -38.47720915 4.14237181 -31 -1 C-20.66775746 -6.53512993 -10.0555704 -5.82164602 0 0 Z " fill="#885822" transform="translate(200,406)"/>
<path d="M0 0 C0.969375 0.53109375 1.93875 1.0621875 2.9375 1.609375 C32.27423268 17.24823817 69.29692011 17.9730716 100.80078125 8.4375 C106.5244385 6.57343878 111.75908453 3.95737373 117 1 C117.66 0.67 118.32 0.34 119 0 C114.54092193 10.94500982 100.61762588 19.08916368 90.25 23.625 C88.17562166 24.43984255 86.09225568 25.23222396 84 26 C82.69869141 26.48533203 82.69869141 26.48533203 81.37109375 26.98046875 C61.99340716 32.98839778 40.34122936 29.33526764 22.66870117 20.20727539 C13.89472648 15.45393229 5.98559011 10.08863529 0 2 C0 1.34 0 0.68 0 0 Z " fill="#40200E" transform="translate(333,192)"/>
<path d="M0 0 C2.51397448 2.24821147 3.80123321 4.34697359 5.125 7.4375 C5.45757812 8.19933594 5.79015625 8.96117187 6.1328125 9.74609375 C9.42973243 18.31511538 8.74222846 26.94000313 5.32421875 35.37109375 C0.66784998 44.61515328 -7.2994956 51.91167058 -15.125 58.5 C-20.39912904 63.04737897 -24.88554339 68.27485328 -27 75 C-27.24049932 78.35505526 -27.24049932 78.35505526 -27.125 81.8125 C-27.09792969 83.55466797 -27.09792969 83.55466797 -27.0703125 85.33203125 C-27.04710937 86.21246094 -27.02390625 87.09289062 -27 88 C-29.45997226 87.63384061 -30.66338429 87.42851714 -32.23046875 85.43359375 C-36.42203311 76.69118808 -36.64717906 69.28508031 -34 60 C-30.14735863 50.2958573 -22.25372229 43.16044899 -14.875 36.0625 C-6.31908249 27.59987131 -1.06110525 18.74619276 -0.375 6.625 C-0.30023438 5.37976562 -0.22546875 4.13453125 -0.1484375 2.8515625 C-0.09945312 1.91054688 -0.05046875 0.96953125 0 0 Z " fill="#895823" transform="translate(420,50)"/>
<path d="M0 0 C5.62593759 1.32375002 8.09154623 5.34822605 11 10 C13.50217048 15.11313099 13.31656398 19.5757564 12 25 C9.43672398 32.40235785 4.95801356 37.45471589 -0.36328125 43.0703125 C-9.55596339 53.28440376 -14.64280476 63.46692614 -17 77 C-22.12470794 70.45415456 -23.64829348 64.24434868 -23.41015625 56.0234375 C-21.94148416 45.19722613 -14.03352244 37.2805103 -5.8125 30.8125 C-4.58466797 29.89404297 -4.58466797 29.89404297 -3.33203125 28.95703125 C0.90866844 25.39825312 4.54098257 21.23447167 5.3359375 15.6328125 C5.4287497 9.6742695 4.80459038 6.6116247 1 2 C0.67 1.34 0.34 0.68 0 0 Z " fill="#895823" transform="translate(384,25)"/>
<path d="M0 0 C0.33 0 0.66 0 1 0 C1.1685632 7.72283049 1.32838989 15.44580656 1.48217773 23.16894531 C1.53550865 25.79561445 1.5908308 28.42224394 1.64819336 31.04882812 C1.73035285 34.82673599 1.80532312 38.60472905 1.87890625 42.3828125 C1.90594131 43.55490265 1.93297638 44.7269928 1.96083069 45.93460083 C1.98092697 47.035289 2.00102325 48.13597717 2.02172852 49.27001953 C2.04171402 50.23376495 2.06169952 51.19751038 2.08229065 52.19046021 C2 55 2 55 1 61 C5.95 61 10.9 61 16 61 C15.69253287 56.87456722 15.3792677 52.74971985 15.0625 48.625 C14.97548828 47.449375 14.88847656 46.27375 14.79882812 45.0625 C14.71181641 43.94101562 14.62480469 42.81953125 14.53515625 41.6640625 C14.456604 40.62717285 14.37805176 39.5902832 14.29711914 38.52197266 C14.14567233 36.00843528 14.14567233 36.00843528 13 34 C13.9375 31.875 13.9375 31.875 15 30 C15.66 30 16.32 30 17 30 C17 29.34 17 28.68 17 28 C20.3 28 23.6 28 27 28 C27.103125 27.0925 27.20625 26.185 27.3125 25.25 C28.00414949 21.98038425 28.82134921 20.46282263 31 18 C32.32 18.33 33.64 18.66 35 19 C35 25.93 35 32.86 35 40 C33.35 40 31.7 40 30 40 C27 34.375 27 34.375 27 31 C23.7 31 20.4 31 17 31 C17 40.24 17 49.48 17 59 C23.93 59 30.86 59 38 59 C38.33 56.36 38.66 53.72 39 51 C40.75 47.5 40.75 47.5 43 45 C44.65 45 46.3 45 48 45 C48 50.61 48 56.22 48 62 C30.51 62 13.02 62 -5 62 C-5 61.34 -5 60.68 -5 60 C-2.525 59.505 -2.525 59.505 0 59 C0 39.53 0 20.06 0 0 Z " fill="#81582C" transform="translate(364,276)"/>
<path d="M0 0 C0.99 0 1.98 0 3 0 C1.14700846 5.8720619 -0.98009039 11.49127816 -3.546875 17.0859375 C-4.23112943 18.59998299 -4.91512073 20.11414742 -5.59887695 21.62841797 C-5.9510025 22.40457458 -6.30312805 23.1807312 -6.66592407 23.98040771 C-18.67295698 50.20713943 -18.67295698 50.20713943 -26 78 C-27.98 78.495 -27.98 78.495 -30 79 C-31.5625 77.5625 -31.5625 77.5625 -33 75 C-32.87969325 67.42067474 -30.77433263 60.03528877 -28 53 C-27.01 52.505 -27.01 52.505 -26 52 C-24.66100862 48.63200776 -23.46416871 45.24490583 -22.29882812 41.81445312 C-20.31122626 36.20748417 -20.31122626 36.20748417 -17 34 C-15.58948677 31.66299278 -15.58948677 31.66299278 -14.375 29 C-13.94960937 28.113125 -13.52421875 27.22625 -13.0859375 26.3125 C-12.54839844 25.1678125 -12.54839844 25.1678125 -12 24 C-11.67 23.34 -11.34 22.68 -11 22 C-11.66 21.34 -12.32 20.68 -13 20 C-11.0625 19.4375 -11.0625 19.4375 -9 19 C-8.67 19.33 -8.34 19.66 -8 20 C-7.67 19.01 -7.34 18.02 -7 17 C-6.34 17 -5.68 17 -5 17 C-5.33 14.03 -5.66 11.06 -6 8 C-4.68 7.67 -3.36 7.34 -2 7 C-1.855625 6.21625 -1.71125 5.4325 -1.5625 4.625 C-1 2 -1 2 0 0 Z " fill="#8E6237" transform="translate(89,134)"/>
<path d="M0 0 C5.94 0 11.88 0 18 0 C18 0.99 18 1.98 18 3 C16.02 3.66 14.04 4.32 12 5 C11.9906543 6.24499268 11.98130859 7.48998535 11.97167969 8.77270508 C11.93149289 13.43793148 11.86565701 18.10251814 11.79248047 22.76733398 C11.76443607 24.77766639 11.74314021 26.78810567 11.72900391 28.79858398 C11.54239152 53.84818666 11.54239152 53.84818666 5.05834961 61.20214844 C-1.36249654 67.38056082 -7.13703345 68.23210871 -15.8046875 68.0703125 C-16.52914062 68.04710937 -17.25359375 68.02390625 -18 68 C-18 67.67 -18 67.34 -18 67 C-15.525 66.505 -15.525 66.505 -13 66 C-16.3 65.01 -19.6 64.02 -23 63 C-22.34 61.35 -21.68 59.7 -21 58 C-19.700625 59.2065625 -19.700625 59.2065625 -18.375 60.4375 C-15.27000615 62.98388515 -13.1222331 64 -9 64 C-4.83332349 63.07945519 -1.80127829 61.75796595 1.3125 58.8125 C5.54321356 51.76131074 6.43172034 45.87101165 6.29296875 37.8125 C6.28660149 36.39783447 6.28660149 36.39783447 6.28010559 34.95458984 C6.2634357 31.96942482 6.22580575 28.98495782 6.1875 26 C6.17243804 23.96485356 6.15875229 21.92969645 6.14648438 19.89453125 C6.11357055 14.9294223 6.06186999 9.96482913 6 5 C4.02 4.34 2.04 3.68 0 3 C0 2.01 0 1.02 0 0 Z " fill="#80592D" transform="translate(260,403)"/>
<path d="M0 0 C16.83 0 33.66 0 51 0 C51 5.94 51 11.88 51 18 C46 17 46 17 43.75 14.4375 C42 11 42 11 41 3 C34.73 3 28.46 3 22 3 C22 12.57 22 22.14 22 32 C21.34 32 20.68 32 20 32 C19.97534254 27.8882744 19.95716041 23.77657722 19.94506836 19.66479492 C19.9400292 18.26504772 19.93319784 16.8653058 19.92456055 15.46557617 C19.9124768 13.45754223 19.90730193 11.44947043 19.90234375 9.44140625 C19.89710693 8.23170166 19.89187012 7.02199707 19.88647461 5.77563477 C20 3 20 3 21 2 C18.2291017 1.97303991 15.4584655 1.95318048 12.6875 1.9375 C11.90181641 1.92912109 11.11613281 1.92074219 10.30664062 1.91210938 C9.1706543 1.90727539 9.1706543 1.90727539 8.01171875 1.90234375 C7.31522217 1.89710693 6.61872559 1.89187012 5.90112305 1.88647461 C3.77502032 1.93104009 3.77502032 1.93104009 1 3 C0.67 2.01 0.34 1.02 0 0 Z " fill="#815A30" transform="translate(359,272)"/>
<path d="M0 0 C1.32 0 2.64 0 4 0 C4 7.26 4 14.52 4 22 C2.35 22 0.7 22 -1 22 C-4 16.375 -4 16.375 -4 13 C-7.3 13 -10.6 13 -14 13 C-14 21.58 -14 30.16 -14 39 C-14.33 39 -14.66 39 -15 39 C-15.22601462 34.91744345 -15.42774673 30.83403925 -15.625 26.75 C-15.68945312 25.59113281 -15.75390625 24.43226563 -15.8203125 23.23828125 C-15.89765625 21.56572266 -15.89765625 21.56572266 -15.9765625 19.859375 C-16.02893066 18.83295898 -16.08129883 17.80654297 -16.13525391 16.74902344 C-16 14 -16 14 -14 10 C-10.7 10 -7.4 10 -4 10 C-3.896875 9.278125 -3.79375 8.55625 -3.6875 7.8125 C-2.92003584 4.67287388 -1.97503519 2.5602308 0 0 Z " fill="#835D34" transform="translate(220,294)"/>
<path d="M0 0 C3.22744204 1.61372102 4.16044424 4.84573402 5.78125 7.96875 C6.83861778 10.14300701 6.83861778 10.14300701 9 11 C9 11.66 9 12.32 9 13 C10.65 13.33 12.3 13.66 14 14 C14 14.66 14 15.32 14 16 C14.94875 16.309375 15.8975 16.61875 16.875 16.9375 C20 18 20 18 22 19 C21.7525 17.8553125 21.7525 17.8553125 21.5 16.6875 C21 14 21 14 21 11 C21.86625 11.804375 22.7325 12.60875 23.625 13.4375 C26.72999385 15.98388515 28.8777669 17 33 17 C38.66040691 15.90883722 42.27782271 13.42276127 45.8125 8.91796875 C47.60652525 6.02038192 48.32046914 3.32970119 49 0 C49.99 0 50.98 0 52 0 C52.08876177 5.47786917 51.37414411 9.14552162 47.75 13.375 C42.35341715 18.92608624 37.56498843 21.11548125 29.875 21.25 C20.46012326 21.12463546 12.8685242 18.54799307 6 12 C2.7333602 8.31893575 0.45683469 5.02518162 0 0 Z " fill="#7F572D" transform="translate(57,319)"/>
<path d="M0 0 C-1.6875 2.0625 -1.6875 2.0625 -4 4 C-6.5625 3.6875 -6.5625 3.6875 -9 3 C-9.99 3.33 -10.98 3.66 -12 4 C-12.495 3.505 -12.495 3.505 -13 3 C-13.4021875 3.47953125 -13.804375 3.9590625 -14.21875 4.453125 C-16.39070559 6.33929696 -17.66341328 6.50416248 -20.5 6.75 C-21.2734375 6.82734375 -22.046875 6.9046875 -22.84375 6.984375 C-25 7 -25 7 -28 6 C-28 6.99 -28 7.98 -28 9 C-26.35 8.67 -24.7 8.34 -23 8 C-22.67 8.99 -22.34 9.98 -22 11 C-26.455 11.495 -26.455 11.495 -31 12 C-31.66 11.01 -32.32 10.02 -33 9 C-33.66 9 -34.32 9 -35 9 C-35 9.66 -35 10.32 -35 11 C-35.928125 11.3403125 -35.928125 11.3403125 -36.875 11.6875 C-39.61410209 13.37929835 -40.05024472 14.99244161 -41 18 C-44 14.375 -44 14.375 -44 11 C-45.32 10.34 -46.64 9.68 -48 9 C-44.23370645 8.03331284 -40.46575424 7.07338748 -36.69628906 6.11914062 C-34.79926544 5.63750793 -32.90351951 5.15085157 -31.0078125 4.6640625 C-20.74838756 2.07220778 -10.63441538 -0.40901598 0 0 Z " fill="#8C5D2C" transform="translate(283,98)"/>
<path d="M0 0 C1.65 0 3.3 0 5 0 C2.25 6.875 2.25 6.875 0 8 C-0.72711775 10.00822998 -1.43530651 12.02476078 -2.0625 14.06640625 C-2.77076814 16.28269532 -3.55523071 18.47483157 -4.375 20.65234375 C-8.02057253 30.21784257 -8.02057253 30.21784257 -6 40 C-5.67 40.66 -5.34 41.32 -5 42 C-5.4375 44.125 -5.4375 44.125 -6 46 C-9.37462715 45.45276317 -11.08235 44.9451 -14 43 C-13.4594558 37.50579495 -12.44694395 32.80682032 -10.56640625 27.578125 C-10.20940895 26.57721832 -10.20940895 26.57721832 -9.84519958 25.55609131 C-9.34554183 24.15987598 -8.84200411 22.76504344 -8.3347168 21.37158203 C-7.56037479 19.24416122 -6.79775433 17.11282071 -6.03710938 14.98046875 C-2.00207154 3.74216804 -2.00207154 3.74216804 0 0 Z " fill="#825B35" transform="translate(162,164)"/>
<path d="M0 0 C0.99 0.33 1.98 0.66 3 1 C2.48614746 1.93682617 2.48614746 1.93682617 1.96191406 2.89257812 C0.38975695 5.76088908 -1.18013547 8.63043368 -2.75 11.5 C-3.28882813 12.48226562 -3.82765625 13.46453125 -4.3828125 14.4765625 C-7.36655611 19.93463008 -10.26073504 25.41509085 -13 31 C-14.65 30.67 -16.3 30.34 -18 30 C-17.67 29.113125 -17.34 28.22625 -17 27.3125 C-15.85038603 23.50440372 -15.45588088 20.68182275 -16.6875 16.875 C-17 15 -17 15 -15.8125 13.1875 C-14 12 -14 12 -11.8125 12.3125 C-11.214375 12.539375 -10.61625 12.76625 -10 13 C-10 11.68 -10 10.36 -10 9 C-9.4225 8.9175 -8.845 8.835 -8.25 8.75 C-4.55757759 7.51919253 -2.60736894 5.09326408 -0.75 1.75 C-0.5025 1.1725 -0.255 0.595 0 0 Z " fill="#8B5722" transform="translate(154,114)"/>
<path d="M0 0 C8.91 0 17.82 0 27 0 C26.67 0.99 26.34 1.98 26 3 C24.68 3 23.36 3 22 3 C22 19.17 22 35.34 22 52 C21.34 51.67 20.68 51.34 20 51 C20 35.16 20 19.32 20 3 C13.73 3 7.46 3 1 3 C0.67 2.01 0.34 1.02 0 0 Z " fill="#7E562A" transform="translate(215,403)"/>
<path d="M0 0 C0.495 1.98 0.495 1.98 1 4 C-0.65 5.32 -2.3 6.64 -4 8 C0.02992782 7.44687265 4.02022924 6.8441938 8 6 C2.22090765 11.08560127 -4.47252942 11.45540358 -11.8671875 11.31640625 C-19.82917791 10.51226507 -26.2981909 7.54770616 -32 2 C-29 2 -29 2 -27.125 3.5 C-24.53710595 5.32674874 -23.09524079 5.16731031 -20 5 C-19.67 5.33 -19.34 5.66 -19 6 C-19 5.01 -19 4.02 -19 3 C-16.50638429 4.20381448 -14.31856917 5.45428722 -12 7 C-8.02166501 6.85533327 -5.74268004 6.60587056 -2.625 4.0625 C-0.96507134 2.09868733 -0.96507134 2.09868733 0 0 Z " fill="#80582B" transform="translate(154,329)"/>
<path d="M0 0 C0.99 0 1.98 0 3 0 C2.75290654 6.918617 0.90453425 11.06262289 -4 16 C-8.94082047 19.69496703 -13.65360625 21.15215285 -19.75 21.0625 C-20.54921875 21.05347656 -21.3484375 21.04445313 -22.171875 21.03515625 C-22.77515625 21.02355469 -23.3784375 21.01195312 -24 21 C-24 20.67 -24 20.34 -24 20 C-23.21625 19.7525 -22.4325 19.505 -21.625 19.25 C-20.42875 18.8375 -19.2325 18.425 -18 18 C-16.80503906 17.63261719 -16.80503906 17.63261719 -15.5859375 17.2578125 C-8.96005816 14.99580535 -5.37748018 12.16449181 -2 6 C-0.61996115 2.70827239 -0.61996115 2.70827239 0 0 Z " fill="#7C552C" transform="translate(206,450)"/>
<path d="M0 0 C0.66 0.33 1.32 0.66 2 1 C1.55527344 1.84304687 1.55527344 1.84304687 1.1015625 2.703125 C-0.00943503 5.01967305 -0.83464706 7.30709092 -1.625 9.75 C-1.88539063 10.54921875 -2.14578125 11.3484375 -2.4140625 12.171875 C-2.60742188 12.77515625 -2.80078125 13.3784375 -3 14 C-2.34 13.67 -1.68 13.34 -1 13 C-1.64916463 19.00477279 -3.85795003 24.400781 -6 30 C-7.5 29 -7.5 29 -9 27 C-9.72522702 20.45162661 -8.10557798 15.57199547 -5.625 9.5625 C-5.30789062 8.74845703 -4.99078125 7.93441406 -4.6640625 7.09570312 C-2.2797429 1.13987145 -2.2797429 1.13987145 0 0 Z " fill="#96653A" transform="translate(163,175)"/>
<path d="M0 0 C2.31 0 4.62 0 7 0 C7 4.95 7 9.9 7 15 C1 14 1 14 -0.375 12.375 C-1.50764822 8.07093675 -1.40214691 4.20644072 0 0 Z " fill="#895921" transform="translate(402,273)"/>
<path d="M0 0 C1.65 0 3.3 0 5 0 C6.50156874 3.00313748 6.09281204 5.79067522 6.0625 9.125 C6.05347656 10.40632813 6.04445312 11.68765625 6.03515625 13.0078125 C6.02355469 13.99523437 6.01195312 14.98265625 6 16 C3.61328125 15.66796875 3.61328125 15.66796875 1 15 C-1.73064418 10.9511138 -2.34512904 7.83180659 -2 3 C-1.34 3 -0.68 3 0 3 C0 2.01 0 1.02 0 0 Z " fill="#895924" transform="translate(228,273)"/>
<path d="M0 0 C1.65 0 3.3 0 5 0 C5.33 0.66 5.66 1.32 6 2 C5.67 2.66 5.34 3.32 5 4 C6.32 4.33 7.64 4.66 9 5 C8.38125 5.07492676 7.7625 5.14985352 7.125 5.22705078 C4.84577746 5.80152078 4.84577746 5.80152078 3.875 7.90185547 C3.441875 9.12219482 3.441875 9.12219482 3 10.3671875 C2.67 11.25277344 2.34 12.13835937 2 13.05078125 C1.67 13.98277344 1.34 14.91476563 1 15.875 C0.34486576 17.7098877 -0.32141594 19.54084213 -1 21.3671875 C-1.433125 22.59091064 -1.433125 22.59091064 -1.875 23.83935547 C-3.18985201 26.36462462 -4.63090902 27.47057903 -7 29 C-6.21824485 24.15311808 -4.60155722 19.6233633 -3 15 C-3.33 14.67 -3.66 14.34 -4 14 C-3.6472214 11.44235518 -3.10421926 10.12506312 -1.4375 8.125 C0.45876848 5.3218205 0.22577486 3.31136456 0 0 Z " fill="#8C5F33" transform="translate(166,162)"/>
<path d="M0 0 C0.99 0.66 1.98 1.32 3 2 C2.67 4.97 2.34 7.94 2 11 C1.34 11 0.68 11 0 11 C-0.12375 11.7425 -0.2475 12.485 -0.375 13.25 C-0.95486701 15.80141485 -1.73708739 17.7267573 -3 20 C-1.68 19.67 -0.36 19.34 1 19 C1.33 16.69 1.66 14.38 2 12 C2.33 12 2.66 12 3 12 C3.1799928 17.21979128 2.97094808 21.07262981 1 26 C-0.875 25.6875 -0.875 25.6875 -3 25 C-5.32683933 21.50974101 -5.10106609 19.81351835 -4.55859375 15.76171875 C-3.47140375 10.38659059 -1.72741991 5.19832874 0 0 Z " fill="#82582D" transform="translate(61,187)"/>
<path d="M0 0 C0.66 0 1.32 0 2 0 C2 6.27 2 12.54 2 19 C0.68 19 -0.64 19 -2 19 C-4.03435531 15.27034861 -5 13.33094958 -5 9 C-7.64 9 -10.28 9 -13 9 C-13 8.67 -13 8.34 -13 8 C-12.39671875 8.00902344 -11.7934375 8.01804687 -11.171875 8.02734375 C-8.61470177 7.93248087 -6.45386542 7.74333961 -4 7 C-1.96119166 4.77389955 -1.1862622 2.83671396 0 0 Z " fill="#885920" transform="translate(221,297)"/>
<path d="M0 0 C-0.33 0.99 -0.66 1.98 -1 3 C-2.32 3 -3.64 3 -5 3 C-5.33 4.32 -5.66 5.64 -6 7 C-10.455 7.495 -10.455 7.495 -15 8 C-15 7.34 -15 6.68 -15 6 C-16.98 6.33 -18.96 6.66 -21 7 C-20.375 5.125 -20.375 5.125 -19 3 C-16.4375 1.875 -16.4375 1.875 -13 1 C-12.25621094 0.80277344 -11.51242188 0.60554688 -10.74609375 0.40234375 C-3.99969392 -1.27592046 -3.99969392 -1.27592046 0 0 Z " fill="#855C2D" transform="translate(101,101)"/>
<path d="M0 0 C10.23 0 20.46 0 31 0 C31 0.33 31 0.66 31 1 C26.93631321 1.77403558 23.13574827 2.0984702 19 2 C19 2.33 19 2.66 19 3 C13.39 3 7.78 3 2 3 C2 12.57 2 22.14 2 32 C0.00237691 28.00475381 -0.23993167 26.53742854 -0.1953125 22.24609375 C-0.18886719 21.14458984 -0.18242187 20.04308594 -0.17578125 18.90820312 C-0.15902344 17.76287109 -0.14226562 16.61753906 -0.125 15.4375 C-0.11597656 14.28830078 -0.10695313 13.13910156 -0.09765625 11.95507812 C-0.08020564 9.82735068 -0.0586552 7.69965023 -0.03173828 5.57202148 C-0.00882041 3.71479226 0 1.85737062 0 0 Z " fill="#805D35" transform="translate(261,272)"/>
<path d="M0 0 C0 2.97 0 5.94 0 9 C-0.99 9 -1.98 9 -3 9 C-3.33 8.34 -3.66 7.68 -4 7 C-4.61488281 7.10699219 -5.22976562 7.21398437 -5.86328125 7.32421875 C-6.67152344 7.44410156 -7.47976562 7.56398437 -8.3125 7.6875 C-9.11300781 7.81511719 -9.91351563 7.94273437 -10.73828125 8.07421875 C-13 8 -13 8 -14.79296875 6.64453125 C-16 5 -16 5 -16 3 C-13.69 3 -11.38 3 -9 3 C-8.67 2.01 -8.34 1.02 -8 0 C-4.76565159 -1.33835107 -3.58579314 -0.89644829 0 0 Z " fill="#8C5921" transform="translate(175,156)"/>
<path d="M0 0 C0 0.99 0 1.98 0 3 C-1.32 3.33 -2.64 3.66 -4 4 C-4 4.99 -4 5.98 -4 7 C-4.99 7.33 -5.98 7.66 -7 8 C-3.37 8 0.26 8 4 8 C4 7.34 4 6.68 4 6 C6.31 5.34 8.62 4.68 11 4 C7.3956912 8.75113432 2.65606504 10.01092127 -3 11 C-7.67979642 11.22816435 -12.31936109 11.18209978 -17 11 C-17 10.01 -17 9.02 -17 8 C-16.11248047 7.85304688 -16.11248047 7.85304688 -15.20703125 7.703125 C-10.09032774 6.73487442 -6.88588453 5.65730309 -3 2 C-2.01 1.34 -1.02 0.68 0 0 Z " fill="#7D562B" transform="translate(323,433)"/>
<path d="M0 0 C0.33 0 0.66 0 1 0 C1.144375 1.11375 1.28875 2.2275 1.4375 3.375 C1.78372035 6.82142047 1.78372035 6.82142047 3 9 C2.34 9 1.68 9 1 9 C1 9.66 1 10.32 1 11 C1.99 11.33 2.98 11.66 4 12 C4.33 15.63 4.66 19.26 5 23 C6.32 22.34 7.64 21.68 9 21 C9.53093324 22.93475671 10.04942317 24.87293155 10.5625 26.8125 C10.85253906 27.89144531 11.14257812 28.97039062 11.44140625 30.08203125 C12 33 12 33 11 36 C3.5009118 24.81579286 -1.12205722 13.61429422 0 0 Z " fill="#7E5323" transform="translate(372,98)"/>
<path d="M0 0 C0.33 0 0.66 0 1 0 C1.00808685 0.7052179 1.01617371 1.41043579 1.02450562 2.13702393 C1.10249207 8.78762825 1.18979487 15.43803765 1.28752708 22.08838272 C1.33744294 25.50728559 1.38377312 28.92615828 1.421875 32.34521484 C1.46585076 36.27719477 1.52548319 40.2088625 1.5859375 44.140625 C1.59748871 45.36678528 1.60903992 46.59294556 1.62094116 47.85626221 C1.64081085 48.99714294 1.66068054 50.13802368 1.68115234 51.31347656 C1.69447601 52.31719299 1.70779968 53.32090942 1.7215271 54.3550415 C1.87980981 57.34479255 1.87980981 57.34479255 4 61 C1.03 61 -1.94 61 -5 61 C-5 60.34 -5 59.68 -5 59 C-2.525 58.505 -2.525 58.505 0 58 C0 38.86 0 19.72 0 0 Z " fill="#7C5429" transform="translate(288,408)"/>
<path d="M0 0 C1 3 1 3 0.2578125 5.05078125 C-0.30292969 6.17033203 -0.30292969 6.17033203 -0.875 7.3125 C-4.38095123 14.33666103 -4.25945626 21.67470834 -4.5625 29.375 C-4.60568359 30.39722656 -4.64886719 31.41945313 -4.69335938 32.47265625 C-4.79887792 34.98165288 -4.90099213 37.49073943 -5 40 C-6.86720459 36.82874525 -7.2300518 34.56199422 -7.16015625 30.90234375 C-7.14919922 29.93619141 -7.13824219 28.97003906 -7.12695312 27.97460938 C-7.10568359 26.97236328 -7.08441406 25.97011719 -7.0625 24.9375 C-7.0280657 22.94668713 -6.99792549 20.95579405 -6.97265625 18.96484375 C-6.95468994 18.0843335 -6.93672363 17.20382324 -6.91821289 16.29663086 C-6.89763736 13.83664702 -6.89763736 13.83664702 -8 11 C-7.72428861 8.99124558 -7.39764263 6.98821313 -7 5 C-5.35 5 -3.7 5 -2 5 C-1.855625 4.360625 -1.71125 3.72125 -1.5625 3.0625 C-1 1 -1 1 0 0 Z " fill="#865C2D" transform="translate(177,407)"/>
<path d="M0 0 C-0.804375 0.28875 -1.60875 0.5775 -2.4375 0.875 C-5.1326468 1.73262568 -5.1326468 1.73262568 -6 4 C-7.65391846 4.39171753 -9.32345271 4.72057545 -11 5 C-11.99 5.33 -12.98 5.66 -14 6 C-14.7115625 6.20238281 -15.423125 6.40476562 -16.15625 6.61328125 C-21.11012235 8.03131052 -21.11012235 8.03131052 -25.0625 11.1875 C-25.5265625 12.0846875 -25.5265625 12.0846875 -26 13 C-26.99 12.67 -27.98 12.34 -29 12 C-29 12.99 -29 13.98 -29 15 C-27.02 15.33 -25.04 15.66 -23 16 C-25 18 -25 18 -27.625 18.125 C-28.40875 18.08375 -29.1925 18.0425 -30 18 C-31.35439668 15.29120665 -31.06501451 12.99066732 -31 10 C-24.62980337 7.05326219 -18.18450071 4.50937275 -11.5625 2.1875 C-10.21768555 1.70120117 -10.21768555 1.70120117 -8.84570312 1.20507812 C-7.99041016 0.90408203 -7.13511719 0.60308594 -6.25390625 0.29296875 C-5.48377197 0.0199292 -4.7136377 -0.25311035 -3.92016602 -0.53442383 C-2 -1 -2 -1 0 0 Z " fill="#7A562D" transform="translate(234,109)"/>
<path d="M0 0 C0.33 0 0.66 0 1 0 C1.33 20.46 1.66 40.92 2 62 C-0.31 62 -2.62 62 -5 62 C-5 61.34 -5 60.68 -5 60 C-2.525 59.505 -2.525 59.505 0 59 C0 39.53 0 20.06 0 0 Z " fill="#785127" transform="translate(364,276)"/>
<path d="M0 0 C2.64 0 5.28 0 8 0 C8.19441368 2.2910905 8.38033135 4.58290337 8.5625 6.875 C8.66691406 8.15117187 8.77132813 9.42734375 8.87890625 10.7421875 C9 14 9 14 8 16 C5 15 5 15 3.25 12.125 C2 9 2 9 3 6 C3.33 5.67 3.66 5.34 4 5 C2.68 3.35 1.36 1.7 0 0 Z M1 3 C3 4 3 4 3 4 Z " fill="#8A581F" transform="translate(340,273)"/>
<path d="M0 0 C0 4.38968456 -2.12805101 5.76905739 -5 9 C-3.35 9 -1.7 9 0 9 C-3.20760251 12.80635497 -6.40746109 16.54563567 -10 20 C-10 16.42424104 -8.91159393 14.94704065 -7 12 C-7.7425 12.474375 -8.485 12.94875 -9.25 13.4375 C-11.61050015 14.77869327 -13.36648477 15.512312 -16 16 C-10.66666667 10.66666667 -5.33333333 5.33333333 0 0 Z " fill="#7B572E" transform="translate(252,185)"/>
<path d="M0 0 C0.99 0.33 1.98 0.66 3 1 C-1.95 9.91 -1.95 9.91 -7 19 C-10 18 -10 18 -12 15 C-11.375 11.875 -11.375 11.875 -10 9 C-8.125 8.375 -8.125 8.375 -6 8 C-3.2049086 5.61595146 -1.44575267 3.3734229 0 0 Z " fill="#8F5D27" transform="translate(154,114)"/>
<path d="M0 0 C-1.6875 2.0625 -1.6875 2.0625 -4 4 C-6.5625 3.6875 -6.5625 3.6875 -9 3 C-9.99 3.33 -10.98 3.66 -12 4 C-12.33 3.67 -12.66 3.34 -13 3 C-13.40347656 3.47824219 -13.80695313 3.95648438 -14.22265625 4.44921875 C-16.37005969 6.32288725 -17.628776 6.53304854 -20.4375 6.8125 C-21.19933594 6.90144531 -21.96117187 6.99039063 -22.74609375 7.08203125 C-25.31315505 6.98860268 -26.80706333 6.29378268 -29 5 C-25.1942123 2.69649692 -21.06622607 2.11063505 -16.75 1.375 C-16.02425781 1.2409375 -15.29851562 1.106875 -14.55078125 0.96875 C-9.63304771 0.10968068 -4.99096559 -0.12420955 0 0 Z " fill="#906636" transform="translate(283,98)"/>
<path d="M0 0 C0.33 0.66 0.66 1.32 1 2 C-0.36328125 4.4609375 -0.36328125 4.4609375 -2.3125 7.375 C-6.69644163 13.97314338 -8.90014053 18.00309937 -8 26 C-7.19696399 28.80830511 -6.17268342 31.3126005 -5 34 C-4.34 32.68 -3.68 31.36 -3 30 C-2.75 36.625 -2.75 36.625 -5 40 C-5.6509259 38.75264433 -6.29551669 37.50198168 -6.9375 36.25 C-7.29714844 35.55390625 -7.65679687 34.8578125 -8.02734375 34.140625 C-10.94403357 27.72156468 -11.30249183 19.86964377 -9.05859375 13.203125 C-6.65373224 8.22754947 -3.73614757 4.05638879 0 0 Z " fill="#7C5831" transform="translate(371,62)"/>
<path d="M0 0 C0.78761719 0.07863281 1.57523437 0.15726562 2.38671875 0.23828125 C3.02222656 0.38652344 3.65773438 0.53476563 4.3125 0.6875 C4.6425 1.3475 4.9725 2.0075 5.3125 2.6875 C7.32919827 3.82100534 7.32919827 3.82100534 9.3125 4.6875 C7.72308594 4.77837891 7.72308594 4.77837891 6.1015625 4.87109375 C4.71352779 4.95550127 3.32550768 5.04014917 1.9375 5.125 C1.23882812 5.16431641 0.54015625 5.20363281 -0.1796875 5.24414062 C-4.06110492 5.43030134 -4.06110492 5.43030134 -7.6875 6.6875 C-9.68710012 6.727492 -11.68797242 6.73096799 -13.6875 6.6875 C-13.6875 6.0275 -13.6875 5.3675 -13.6875 4.6875 C-12.0375 4.3575 -10.3875 4.0275 -8.6875 3.6875 C-8.6875 2.6975 -8.6875 1.7075 -8.6875 0.6875 C-5.62049749 -0.24593555 -3.18030191 -0.35219872 0 0 Z " fill="#8D6335" transform="translate(292.6875,98.3125)"/>
<path d="M0 0 C6.00738007 2.11070111 6.00738007 2.11070111 8 5 C8.6875 8.6875 8.6875 8.6875 9 12 C7.35 12.66 5.7 13.32 4 14 C4.33 12.02 4.66 10.04 5 8 C3.40012764 7.72384942 1.794667 7.47992375 0.1875 7.25 C-0.70582031 7.11078125 -1.59914062 6.9715625 -2.51953125 6.828125 C-5.16771219 6.72597472 -5.16771219 6.72597472 -6.82421875 8.984375 C-7.21222656 9.64953125 -7.60023438 10.3146875 -8 11 C-7.67 9.02 -7.34 7.04 -7 5 C-3.18510326 3.53273202 -0.70988378 4.56663581 3 6 C3 5.01 3 4.02 3 3 C2.34 3 1.68 3 1 3 C0.67 2.01 0.34 1.02 0 0 Z " fill="#795633" transform="translate(168,96)"/>
<path d="M0 0 C0 0.66 0 1.32 0 2 C3.465 1.505 3.465 1.505 7 1 C7.33 1.99 7.66 2.98 8 4 C8.66 4 9.32 4 10 4 C10 4.99 10 5.98 10 7 C8.9275 6.814375 7.855 6.62875 6.75 6.4375 C3.59608454 6.0695432 1.90181508 5.95534657 -1 7 C-1.33 6.34 -1.66 5.68 -2 5 C-4.01695593 4.77227917 -6.03435548 4.5470785 -8.0546875 4.3515625 C-10.49611941 3.91033987 -11.59116501 3.0252003 -13 1 C-8.61414671 0.29826347 -4.44209357 -0.10834375 0 0 Z " fill="#95632F" transform="translate(161,95)"/>
<path d="M0 0 C0.66 0 1.32 0 2 0 C2 5.94 2 11.88 2 18 C1.01 18 0.02 18 -1 18 C-1 17.01 -1 16.02 -1 15 C-1.66 15 -2.32 15 -3 15 C-4.18956883 10.84773144 -3.78960563 8.61274007 -2.0625 4.6875 C-1.68222656 3.80449219 -1.30195313 2.92148437 -0.91015625 2.01171875 C-0.60980469 1.34785156 -0.30945313 0.68398438 0 0 Z " fill="#8C591F" transform="translate(335,296)"/>
<path d="M0 0 C0.66 0.33 1.32 0.66 2 1 C2.99 0.67 3.98 0.34 5 0 C5 1.66666667 5 3.33333333 5 5 C2.69 5 0.38 5 -2 5 C-2.33 4.34 -2.66 3.68 -3 3 C-2.34 3 -1.68 3 -1 3 C-0.67 2.01 -0.34 1.02 0 0 Z M6 0 C8 1 8 1 8 1 Z M-3 4 C-2.67 4.99 -2.34 5.98 -2 7 C-8.75 8.125 -8.75 8.125 -11 7 C-12.32 7 -13.64 7 -15 7 C-15 6.01 -15 5.02 -15 4 C-5.85714286 2.62857143 -5.85714286 2.62857143 -3 4 Z " fill="#895923" transform="translate(270,100)"/>
<path d="M0 0 C2.125 0.9375 2.125 0.9375 4 2 C4.02689216 3.47906892 4.04634621 4.95827483 4.0625 6.4375 C4.07410156 7.26121094 4.08570313 8.08492188 4.09765625 8.93359375 C4 11 4 11 3 12 C1.00041636 12.04080783 -1.00045254 12.04254356 -3 12 C-2.88648483 10.18674449 -2.75887039 8.37436643 -2.625 6.5625 C-2.55539062 5.55316406 -2.48578125 4.54382813 -2.4140625 3.50390625 C-2.27742188 2.67761719 -2.14078125 1.85132813 -2 1 C-1.34 0.67 -0.68 0.34 0 0 Z " fill="#8C581F" transform="translate(407,325)"/>
<path d="M0 0 C-0.165 0.61875 -0.33 1.2375 -0.5 1.875 C-1.07634644 3.96063386 -1.07634644 3.96063386 -1 6 C-5.95 7.485 -5.95 7.485 -11 9 C-12 8 -12 8 -12.0625 5.4375 C-12.041875 4.633125 -12.02125 3.82875 -12 3 C-10.3789897 2.30314502 -8.75303934 1.61777139 -7.125 0.9375 C-6.22007813 0.55464844 -5.31515625 0.17179688 -4.3828125 -0.22265625 C-2 -1 -2 -1 0 0 Z " fill="#865A2A" transform="translate(111,170)"/>
<path d="M0 0 C0.66 0 1.32 0 2 0 C1.47337786 5.00291036 -0.18598456 9.15685391 -2.16015625 13.73046875 C-3.17352574 16.06559971 -3.17352574 16.06559971 -3 19 C-3.99 19 -4.98 19 -6 19 C-6.45375 19.515625 -6.9075 20.03125 -7.375 20.5625 C-7.91125 21.036875 -8.4475 21.51125 -9 22 C-11.6875 21.6875 -11.6875 21.6875 -14 21 C-12 19 -12 19 -10.00878906 18.62719727 C-7.85719576 18.18524282 -7.85719576 18.18524282 -6.81152344 16.23413086 C-6.49731445 15.48526611 -6.18310547 14.73640137 -5.859375 13.96484375 C-5.33730469 12.75151367 -5.33730469 12.75151367 -4.8046875 11.51367188 C-4.45664063 10.66353516 -4.10859375 9.81339844 -3.75 8.9375 C-3.38648438 8.08349609 -3.02296875 7.22949219 -2.6484375 6.34960938 C-1.75204239 4.23836299 -0.87003498 2.12221415 0 0 Z " fill="#7D5C34" transform="translate(173,138)"/>
<path d="M0 0 C-0.01160156 0.89203125 -0.02320313 1.7840625 -0.03515625 2.703125 C-0.04417969 3.87359375 -0.05320312 5.0440625 -0.0625 6.25 C-0.07410156 7.41015625 -0.08570313 8.5703125 -0.09765625 9.765625 C-0.01782092 12.40977128 0.21356222 14.49826091 1 17 C-0.32 17.33 -1.64 17.66 -3 18 C-5.58173162 6.00881679 -5.58173162 6.00881679 -4 1 C-2 0 -2 0 0 0 Z " fill="#8C581E" transform="translate(397,298)"/>
<path d="M0 0 C0.99 0.33 1.98 0.66 3 1 C3.33 6.28 3.66 11.56 4 17 C0 15 0 15 -0.8984375 13.046875 C-1.93268481 8.06214208 -2.21222401 4.79315202 0 0 Z " fill="#8C581F" transform="translate(276,298)"/>
<path d="M0 0 C0.99 0.33 1.98 0.66 3 1 C2.04637378 3.60597856 1.08732872 6.20973651 0.125 8.8125 C-0.14441406 9.55048828 -0.41382812 10.28847656 -0.69140625 11.04882812 C-0.95566406 11.76103516 -1.21992187 12.47324219 -1.4921875 13.20703125 C-1.85352783 14.18893433 -1.85352783 14.18893433 -2.22216797 15.19067383 C-3 17 -3 17 -5 20 C-5.66 19.34 -6.32 18.68 -7 18 C-6.60552057 13.97067438 -5.06917593 10.45398504 -3.5 6.75 C-3.0565625 5.69296875 -2.613125 4.6359375 -2.15625 3.546875 C-1 1 -1 1 0 0 Z " fill="#895F37" transform="translate(125,172)"/>
<path d="M0 0 C0.33 0 0.66 0 1 0 C1 2.31 1 4.62 1 7 C2.32 7 3.64 7 5 7 C5 9.31 5 11.62 5 14 C2.75 13.9375 2.75 13.9375 0 13 C-1.81289982 10.86055301 -3.04525277 8.63418211 -4 6 C-3.75 3.5625 -3.75 3.5625 -3 2 C-2.67 2.66 -2.34 3.32 -2 4 C-1.34 2.68 -0.68 1.36 0 0 Z " fill="#7F5527" transform="translate(287,276)"/>
<path d="M0 0 C1 3 1 3 1 6 C-0.32 6 -1.64 6 -3 6 C-3.33 6.66 -3.66 7.32 -4 8 C-7.63 7.67 -11.26 7.34 -15 7 C-14 5 -14 5 -11.85546875 4.21875 C-10.97503906 3.9815625 -10.09460938 3.744375 -9.1875 3.5 C-5.90525516 2.60792755 -2.99596938 1.62019789 0 0 Z " fill="#805721" transform="translate(237,150)"/>
<path d="M0 0 C1.32 0.33 2.64 0.66 4 1 C4 6.94 4 12.88 4 19 C3.67 19 3.34 19 3 19 C2.97421875 18.37351562 2.9484375 17.74703125 2.921875 17.1015625 C2.86515625 16.28429687 2.8084375 15.46703125 2.75 14.625 C2.70359375 13.81289063 2.6571875 13.00078125 2.609375 12.1640625 C2.2077908 9.81161073 2.2077908 9.81161073 -0.046875 8.7109375 C-0.69140625 8.47632813 -1.3359375 8.24171875 -2 8 C-1.34 7.01 -0.68 6.02 0 5 C-0.66 4.01 -1.32 3.02 -2 2 C-1.34 1.34 -0.68 0.68 0 0 Z " fill="#705317" transform="translate(204,402)"/>
<path d="M0 0 C0.66 0.33 1.32 0.66 2 1 C-0.70615034 10.59453303 -0.70615034 10.59453303 -5 14 C-5 13.34 -5 12.68 -5 12 C-5.66 12 -6.32 12 -7 12 C-7.33 12.99 -7.66 13.98 -8 15 C-8.66 14.67 -9.32 14.34 -10 14 C-9.44570313 13.32453125 -8.89140625 12.6490625 -8.3203125 11.953125 C-7.59585937 11.06109375 -6.87140625 10.1690625 -6.125 9.25 C-5.40570313 8.36828125 -4.68640625 7.4865625 -3.9453125 6.578125 C-2.31557412 4.41823076 -1.09215995 2.460234 0 0 Z " fill="#7D5A37" transform="translate(277,152)"/>
<path d="M0 0 C2.9375 0.8125 2.9375 0.8125 6 2 C7 5 7 5 5.6875 8.625 C4 12 4 12 2 13 C1.67 11.68 1.34 10.36 1 9 C1.99 8.67 2.98 8.34 4 8 C4.33 7.01 4.66 6.02 5 5 C4.360625 4.855625 3.72125 4.71125 3.0625 4.5625 C1 4 1 4 0 3 C-0.33 3.99 -0.66 4.98 -1 6 C-2.32 5.67 -3.64 5.34 -5 5 C-3.35 3.35 -1.7 1.7 0 0 Z " fill="#7D572D" transform="translate(197,95)"/>
<path d="M0 0 C0.66 1.98 1.32 3.96 2 6 C0.35 6.33 -1.3 6.66 -3 7 C-3 6.01 -3 5.02 -3 4 C-3.33 3.34 -3.66 2.68 -4 2 C-10.93 2 -17.86 2 -25 2 C-25 1.67 -25 1.34 -25 1 C-16.64380043 0.24524649 -8.39004715 -0.13605482 0 0 Z " fill="#7A542E" transform="translate(326,94)"/>
<path d="M0 0 C1.17046875 0.19464844 2.3409375 0.38929688 3.546875 0.58984375 C4.43890625 0.74582031 5.3309375 0.90179688 6.25 1.0625 C5.60546875 1.34867187 4.9609375 1.63484375 4.296875 1.9296875 C2.05115872 2.87668662 2.05115872 2.87668662 1.5 5.1875 C1.4175 5.80625 1.335 6.425 1.25 7.0625 C0.92 6.588125 0.59 6.11375 0.25 5.625 C-2.84813267 3.20458385 -5.87026792 3.38051083 -9.75 3.0625 C-10.08 2.0725 -10.41 1.0825 -10.75 0.0625 C-6.97628488 -1.2732457 -3.89168653 -0.66158671 0 0 Z " fill="#7D5229" transform="translate(150.75,270.9375)"/>
<path d="M0 0 C2.71556689 2.71556689 3.7286202 4.1696263 5.1875 7.5625 C5.53167969 8.34753906 5.87585938 9.13257813 6.23046875 9.94140625 C7 12 7 12 7 14 C6.34 14 5.68 14 5 14 C4.34 13.01 3.68 12.02 3 11 C2.67 10.67 2.34 10.34 2 10 C1.34 11.32 0.68 12.64 0 14 C0 9.38 0 4.76 0 0 Z " fill="#80572B" transform="translate(420,50)"/>
<path d="M0 0 C8.91 0 17.82 0 27 0 C26.67 0.99 26.34 1.98 26 3 C24.68 3 23.36 3 22 3 C22 2.34 22 1.68 22 1 C15.73 1 9.46 1 3 1 C3 1.66 3 2.32 3 3 C2.01 2.67 1.02 2.34 0 2 C0 1.34 0 0.68 0 0 Z " fill="#7B5D3B" transform="translate(215,403)"/>
<path d="M0 0 C0.66 0.33 1.32 0.66 2 1 C1.360625 1.515625 0.72125 2.03125 0.0625 2.5625 C-2.5713751 5.67526148 -2.50151926 8.01215412 -3 12 C-4.5625 14.4375 -4.5625 14.4375 -6 16 C-6.66 15.34 -7.32 14.68 -8 14 C-8 8.5426525 -3.7169411 3.7169411 0 0 Z " fill="#7E572C" transform="translate(125,276)"/>
<path d="M0 0 C1 3 1 3 1 4 C1.33 4.99 1.66 5.98 2 7 C0.35 8.65 -1.3 10.3 -3 12 C-3.33 11.01 -3.66 10.02 -4 9 C-4.99 9 -5.98 9 -7 9 C-4.69 6.03 -2.38 3.06 0 0 Z " fill="#86613A" transform="translate(264,170)"/>
<path d="M0 0 C-0.33 0.66 -0.66 1.32 -1 2 C-1.99 1.67 -2.98 1.34 -4 1 C-4.33 1.99 -4.66 2.98 -5 4 C-7.97 4 -10.94 4 -14 4 C-13.34 2.68 -12.68 1.36 -12 0 C-9.6875 -0.64453125 -9.6875 -0.64453125 -7 -0.8125 C-6.113125 -0.88082031 -5.22625 -0.94914062 -4.3125 -1.01953125 C-2 -1 -2 -1 0 0 Z " fill="#956432" transform="translate(94,104)"/>
<path d="M0 0 C0.6171875 1.83984375 0.6171875 1.83984375 1 4 C-2.69796045 9.05387928 -7.19969048 10.44566869 -13 12 C-8.87675353 7.74790208 -4.48717034 3.86364295 0 0 Z " fill="#7F592B" transform="translate(385,50)"/>
<path d="M0 0 C6.00738007 2.11070111 6.00738007 2.11070111 8 5 C8.6875 8.6875 8.6875 8.6875 9 12 C8.01 12 7.02 12 6 12 C6 10.02 6 8.04 6 6 C5.01 6 4.02 6 3 6 C3 5.01 3 4.02 3 3 C2.34 3 1.68 3 1 3 C0.67 2.01 0.34 1.02 0 0 Z " fill="#825627" transform="translate(168,96)"/>
<path d="M0 0 C0.99 0.33 1.98 0.66 3 1 C2.67 3.97 2.34 6.94 2 10 C0.68 9.34 -0.64 8.68 -2 8 C-2 6.02 -2 4.04 -2 2 C-1.34 2 -0.68 2 0 2 C0 1.34 0 0.68 0 0 Z " fill="#88561F" transform="translate(112,204)"/>
<path d="M0 0 C1.65 0 3.3 0 5 0 C2.25 6.875 2.25 6.875 0 8 C0 8.66 0 9.32 0 10 C-0.66 10 -1.32 10 -2 10 C-2.17942163 6.05272412 -2.09350689 3.4019487 0 0 Z " fill="#7D5329" transform="translate(162,164)"/>
<path d="M0 0 C-0.875 6.75 -0.875 6.75 -2 9 C-3.32 8.67 -4.64 8.34 -6 8 C-5.125 3.25 -5.125 3.25 -4 1 C-1 0 -1 0 0 0 Z " fill="#855726" transform="translate(184,135)"/>
<path d="M0 0 C3.20762554 4.81143831 3.119958 9.12415752 3.0625 14.8125 C3.05347656 15.97394531 3.04445312 17.13539063 3.03515625 18.33203125 C3.02355469 19.21246094 3.01195312 20.09289062 3 21 C2.67 21 2.34 21 2 21 C2 17.04 2 13.08 2 9 C1.01 8.67 0.02 8.34 -1 8 C-0.67 5.36 -0.34 2.72 0 0 Z " fill="#7E592A" transform="translate(173,290)"/>
<path d="M0 0 C0.33 0 0.66 0 1 0 C1.34568576 4.83960066 0.66280693 7.91068936 -2 12 C-3.32 12.33 -4.64 12.66 -6 13 C-4.02 8.71 -2.04 4.42 0 0 Z " fill="#7F5D3B" transform="translate(131,147)"/>
<path d="M0 0 C0.33 0 0.66 0 1 0 C0.25 7.625 0.25 7.625 -2 11 C-2.99 10.67 -3.98 10.34 -5 10 C-4.35699811 8.51960029 -3.71051501 7.04071218 -3.0625 5.5625 C-2.70285156 4.73878906 -2.34320313 3.91507813 -1.97265625 3.06640625 C-1 1 -1 1 0 0 Z " fill="#795630" transform="translate(115,186)"/>
<path d="M0 0 C-0.33 0.66 -0.66 1.32 -1 2 C-2.65391846 2.39171753 -4.32345271 2.72057545 -6 3 C-6.99 3.33 -7.98 3.66 -9 4 C-9 4.66 -9 5.32 -9 6 C-11.97 5.505 -11.97 5.505 -15 5 C-15 4.34 -15 3.68 -15 3 C-12.69 3 -10.38 3 -8 3 C-8 2.34 -8 1.68 -8 1 C-5.07175348 0.02391783 -3.04386724 -0.08226668 0 0 Z " fill="#84531E" transform="translate(138,163)"/>
<path d="M0 0 C0 0.33 0 0.66 0 1 C-1.65 1.33 -3.3 1.66 -5 2 C-4.2236068 5.0745356 -4.2236068 5.0745356 -2 7 C-7.53846154 6.38461538 -7.53846154 6.38461538 -9.875 4.4375 C-10.24625 3.963125 -10.6175 3.48875 -11 3 C-10 1 -10 1 -8.3125 0.375 C-5.51555886 -0.07855802 -2.82858003 -0.06428591 0 0 Z " fill="#7C521E" transform="translate(111,98)"/>
<path d="M0 0 C0.33 0 0.66 0 1 0 C1.05402274 2.10388569 1.09280256 4.20816714 1.125 6.3125 C1.14820313 7.48425781 1.17140625 8.65601563 1.1953125 9.86328125 C1 13 1 13 -1 16 C-1.38909985 14.54536519 -1.76088029 13.08608793 -2.125 11.625 C-2.33382812 10.81289062 -2.54265625 10.00078125 -2.7578125 9.1640625 C-2.83773437 8.44992188 -2.91765625 7.73578125 -3 7 C-2.34 6.34 -1.68 5.68 -1 5 C-0.35232207 2.42938689 -0.35232207 2.42938689 0 0 Z " fill="#996C3D" transform="translate(213,185)"/>
<path d="M0 0 C2.0625 0.4375 2.0625 0.4375 4 1 C3.34 1 2.68 1 2 1 C2 3.31 2 5.62 2 8 C2.99 8.33 3.98 8.66 5 9 C3.33388095 9.042721 1.66617115 9.04063832 0 9 C-1 8 -1 8 -1.125 4.5 C-1 1 -1 1 0 0 Z " fill="#7E5931" transform="translate(52,111)"/>
<path d="M0 0 C5.94 0 11.88 0 18 0 C18 0.33 18 0.66 18 1 C13.38 1 8.76 1 4 1 C4 1.66 4 2.32 4 3 C4.66 3.33 5.32 3.66 6 4 C3.03 3.505 3.03 3.505 0 3 C0 2.01 0 1.02 0 0 Z " fill="#7C5B38" transform="translate(260,403)"/>
<path d="M0 0 C0.33 0 0.66 0 1 0 C1.18175781 1.28583984 1.18175781 1.28583984 1.3671875 2.59765625 C2.23855224 8.54304491 3.13815819 14.28148588 5 20 C4.01 19.67 3.02 19.34 2 19 C-0.51858302 13.08739067 -0.23666802 6.29799892 0 0 Z " fill="#755535" transform="translate(72,310)"/>
<path d="M0 0 C0.33 0.99 0.66 1.98 1 3 C1.99 3 2.98 3 4 3 C4.33 2.34 4.66 1.68 5 1 C5.33 1.99 5.66 2.98 6 4 C5.01 4.66 4.02 5.32 3 6 C2.42251197 7.96361864 2.42251197 7.96361864 2.3125 10.125 C2.209375 11.40375 2.10625 12.6825 2 14 C1.67 14 1.34 14 1 14 C0.04738513 9.23692563 -0.08333357 4.8333472 0 0 Z " fill="#775027" transform="translate(207,183)"/>
<path d="M0 0 C0.99 0.33 1.98 0.66 3 1 C2.67 2.98 2.34 4.96 2 7 C0.02 7.66 -1.96 8.32 -4 9 C-4 8.01 -4 7.02 -4 6 C-2.68 6 -1.36 6 0 6 C-0.185625 5.38125 -0.37125 4.7625 -0.5625 4.125 C-1 2 -1 2 0 0 Z " fill="#7D5B35" transform="translate(238,150)"/>
<path d="M0 0 C1.32527172 3.6297251 0.66675274 5.62288221 -0.8125 9.125 C-1.16957031 9.99382812 -1.52664062 10.86265625 -1.89453125 11.7578125 C-3 14 -3 14 -5 16 C-4.67702486 14.33129513 -4.33986667 12.66534667 -4 11 C-3.85433594 10.25234375 -3.70867187 9.5046875 -3.55859375 8.734375 C-3.31302734 7.53554688 -3.31302734 7.53554688 -3.0625 6.3125 C-2.90910156 5.54550781 -2.75570312 4.77851563 -2.59765625 3.98828125 C-2 2 -2 2 0 0 Z " fill="#79562C" transform="translate(174,313)"/>
<path d="M0 0 C1.32 0 2.64 0 4 0 C3.34 2.97 2.68 5.94 2 9 C1.01 8.01 0.02 7.02 -1 6 C-0.6875 2.8125 -0.6875 2.8125 0 0 Z " fill="#9A724A" transform="translate(155,196)"/>
<path d="M0 0 C0.99 0.33 1.98 0.66 3 1 C0.69 5.29 -1.62 9.58 -4 14 C-5.14897419 9.40410325 -4.7140729 8.73828148 -2.5625 4.75 C-2.08941406 3.85796875 -1.61632812 2.9659375 -1.12890625 2.046875 C-0.75636719 1.37140625 -0.38382813 0.6959375 0 0 Z " fill="#98744E" transform="translate(154,114)"/>
<path d="M0 0 C4.69023454 0.56606279 9.34500026 1.18537505 14 2 C14 2.33 14 2.66 14 3 C9.38 3 4.76 3 0 3 C0 2.01 0 1.02 0 0 Z " fill="#835D33" transform="translate(306,441)"/>
<path d="M0 0 C2.49361571 1.20381448 4.68143083 2.45428722 7 4 C9.62531524 4.16713569 9.62531524 4.16713569 12 4 C12.33 5.32 12.66 6.64 13 8 C8.47463334 7.46760392 5.61160373 5.72876727 2 3 C1.34 2.01 0.68 1.02 0 0 Z " fill="#7C562B" transform="translate(122,330)"/>
<path d="M0 0 C0.33 0 0.66 0 1 0 C1.125 7.625 1.125 7.625 0 11 C-1.32 11 -2.64 11 -4 11 C-3.67 9.68 -3.34 8.36 -3 7 C-2.34 7 -1.68 7 -1 7 C-0.67 4.69 -0.34 2.38 0 0 Z " fill="#895926" transform="translate(63,199)"/>
<path d="M0 0 C0.99 0.66 1.98 1.32 3 2 C2.67 4.64 2.34 7.28 2 10 C0.68 10.33 -0.64 10.66 -2 11 C-1.855625 10.484375 -1.71125 9.96875 -1.5625 9.4375 C-0.84190099 6.31490429 -0.42733561 3.17449308 0 0 Z " fill="#9A6832" transform="translate(60,196)"/>
<path d="M0 0 C1.32 1.32 2.64 2.64 4 4 C2.68 4.33 1.36 4.66 0 5 C-0.33 6.98 -0.66 8.96 -1 11 C-1.99 10.67 -2.98 10.34 -4 10 C-2.68 6.7 -1.36 3.4 0 0 Z " fill="#91602B" transform="translate(66,178)"/>
<path d="M0 0 C0.99 0.33 1.98 0.66 3 1 C3 1.66 3 2.32 3 3 C4.32 3.66 5.64 4.32 7 5 C4.69 5.66 2.38 6.32 0 7 C-1 6 -1 6 -1.125 3.5 C-1 1 -1 1 0 0 Z " fill="#76572D" transform="translate(100,172)"/>
<path d="M0 0 C0 2.97 0 5.94 0 9 C-0.66 7.68 -1.32 6.36 -2 5 C-2 6.98 -2 8.96 -2 11 C-2.66 10.67 -3.32 10.34 -4 10 C-4 7.03 -4 4.06 -4 1 C-2 0 -2 0 0 0 Z " fill="#8D5A26" transform="translate(213,187)"/>
<path d="M0 0 C2.91517292 1.07401108 4.77810176 1.77810176 7 4 C6.34 4 5.68 4 5 4 C4.67 4.99 4.34 5.98 4 7 C2.35 5.68 0.7 4.36 -1 3 C-0.67 2.01 -0.34 1.02 0 0 Z " fill="#795430" transform="translate(192,403)"/>
<path d="M0 0 C0.66 0 1.32 0 2 0 C0.79157144 4.43090471 -0.51668565 6.98112756 -4 10 C-4 5.75354935 -2.18249194 3.61475228 0 0 Z " fill="#8F6438" transform="translate(246,195)"/>
<path d="M0 0 C1.65 0 3.3 0 5 0 C5.33 0.66 5.66 1.32 6 2 C5.67 2.66 5.34 3.32 5 4 C6.32 4.33 7.64 4.66 9 5 C6.69 5.33 4.38 5.66 2 6 C1.34 4.02 0.68 2.04 0 0 Z " fill="#926638" transform="translate(166,162)"/>
<path d="M0 0 C1.08892712 2.83121051 0.96109941 4.16532751 0.25 7.1875 C-0.36875 8.5796875 -0.36875 8.5796875 -1 10 C-1.99 10.33 -2.98 10.66 -4 11 C-3.39301257 6.87248551 -1.96189209 3.6678852 0 0 Z " fill="#805B37" transform="translate(179,126)"/>
<path d="M0 0 C0.95465783 2.16967689 1.14401212 3.56328793 0.3984375 5.82421875 C-0.35870385 7.5684743 -1.17609198 9.28627131 -2 11 C-2.99 11 -3.98 11 -5 11 C-4.26023275 7.1532103 -2.81328141 2.81328141 0 0 Z " fill="#895721" transform="translate(189,120)"/>
<path d="M0 0 C1.32 0 2.64 0 4 0 C3.67 1.65 3.34 3.3 3 5 C3.66 5.33 4.32 5.66 5 6 C3.35 6.33 1.7 6.66 0 7 C0 4.69 0 2.38 0 0 Z " fill="#8F591E" transform="translate(54,112)"/>
<path d="M0 0 C5.28 0.66 10.56 1.32 16 2 C14 4 14 4 11.375 4.125 C10.59125 4.08375 9.8075 4.0425 9 4 C9 3.34 9 2.68 9 2 C6.03 1.67 3.06 1.34 0 1 C0 0.67 0 0.34 0 0 Z " fill="#7E5930" transform="translate(152,93)"/>
<path d="M0 0 C-0.33 0.99 -0.66 1.98 -1 3 C-3.64 3 -6.28 3 -9 3 C-9.33 2.01 -9.66 1.02 -10 0 C-6.42355152 -1.2380014 -3.66305234 -0.74926071 0 0 Z " fill="#774B1A" transform="translate(150,271)"/>
<path d="M0 0 C0.598125 0.639375 1.19625 1.27875 1.8125 1.9375 C3.90810337 4.20310389 3.90810337 4.20310389 7 5 C7 4.01 7 3.02 7 2 C7.66 2.33 8.32 2.66 9 3 C8.67 4.32 8.34 5.64 8 7 C4.62537285 6.45276317 2.91765 5.9451 0 4 C0 2.68 0 1.36 0 0 Z " fill="#755631" transform="translate(148,203)"/>
<path d="M0 0 C0.99 0 1.98 0 3 0 C3 1.65 3 3.3 3 5 C3.66 5 4.32 5 5 5 C5 5.99 5 6.98 5 8 C3.68 7.67 2.36 7.34 1 7 C0 2.25 0 2.25 0 0 Z " fill="#8D5422" transform="translate(150,200)"/>
<path d="M0 0 C0.99 0 1.98 0 3 0 C1.52307692 6.52307692 1.52307692 6.52307692 -1.125 8.9375 C-1.74375 9.288125 -2.3625 9.63875 -3 10 C-2.39009109 6.44219804 -1.4216319 3.3171411 0 0 Z " fill="#885D2F" transform="translate(162,181)"/>
<path d="M0 0 C1.65 0 3.3 0 5 0 C5 3 5 3 4 6 C2.68 5.67 1.36 5.34 0 5 C0 3.35 0 1.7 0 0 Z " fill="#8B581D" transform="translate(156,99)"/>
<path d="M0 0 C1.38971011 2.77942022 0.58597169 4.07038614 -0.3125 7 C-0.57675781 7.886875 -0.84101563 8.77375 -1.11328125 9.6875 C-2 12 -2 12 -4 14 C-4.33 12.35 -4.66 10.7 -5 9 C-4.01 8.67 -3.02 8.34 -2 8 C-1.855625 6.865625 -1.71125 5.73125 -1.5625 4.5625 C-1 1 -1 1 0 0 Z " fill="#7D572D" transform="translate(415,56)"/>
<path d="M0 0 C0.33 0 0.66 0 1 0 C1.18175781 0.87011719 1.18175781 0.87011719 1.3671875 1.7578125 C2.33735474 6.28028442 3.43397783 10.63750966 5 15 C2.78929659 13.34197245 1.44182319 12.30185808 0 10 C-0.43788102 6.62574035 -0.29562191 3.38322853 0 0 Z " fill="#78542F" transform="translate(172,447)"/>
<path d="M0 0 C0 3 0 3 -2.375 5.625 C-5 8 -5 8 -7 9 C-6.875 6.75 -6.875 6.75 -6 4 C-2.9375 1.6875 -2.9375 1.6875 0 0 Z " fill="#422B1F" transform="translate(451,192)"/>
<path d="M0 0 C0.99 0.33 1.98 0.66 3 1 C2.01 3.31 1.02 5.62 0 8 C-0.99 7.67 -1.98 7.34 -3 7 C-1.125 1.125 -1.125 1.125 0 0 Z " fill="#795534" transform="translate(125,172)"/>
<path d="M0 0 C0.99 0.33 1.98 0.66 3 1 C2.67 2.98 2.34 4.96 2 7 C1.01 7 0.02 7 -1 7 C-1.625 4.625 -1.625 4.625 -2 2 C-1.34 1.34 -0.68 0.68 0 0 Z " fill="#785229" transform="translate(214,167)"/>
<path d="M0 0 C3 2 3 2 3.8125 4 C3.874375 4.66 3.93625 5.32 4 6 C2 8 2 8 -0.625 8.125 C-1.40875 8.08375 -2.1925 8.0425 -3 8 C-2.67 7.34 -2.34 6.68 -2 6 C-1.01 6.33 -0.02 6.66 1 7 C0.67 4.69 0.34 2.38 0 0 Z " fill="#7A5530" transform="translate(174,158)"/>
<path d="M0 0 C0.99 0.33 1.98 0.66 3 1 C0.525 5.455 0.525 5.455 -2 10 C-2.33 10 -2.66 10 -3 10 C-2.25 3.375 -2.25 3.375 0 0 Z " fill="#8C5822" transform="translate(76,155)"/>
<path d="M0 0 C0.33 0 0.66 0 1 0 C1 2.31 1 4.62 1 7 C1.66 7.33 2.32 7.66 3 8 C2.01 8.99 1.02 9.98 0 11 C0 10.34 0 9.68 0 9 C-0.66 8.67 -1.32 8.34 -2 8 C-1.47731534 5.23723823 -0.89130413 2.6739124 0 0 Z " fill="#8C6332" transform="translate(89,121)"/>
<path d="M0 0 C0.33 0.66 0.66 1.32 1 2 C0.34 2.66 -0.32 3.32 -1 4 C-1.33 3.67 -1.66 3.34 -2 3 C-3.68183948 2.76712992 -5.3712416 2.58735834 -7.0625 2.4375 C-8.44115234 2.31181641 -8.44115234 2.31181641 -9.84765625 2.18359375 C-10.91306641 2.09271484 -10.91306641 2.09271484 -12 2 C-12 1.67 -12 1.34 -12 1 C-7.93631321 0.22596442 -4.13574827 -0.0984702 0 0 Z " fill="#845A23" transform="translate(191,402)"/>
<path d="M0 0 C-0.33 0.66 -0.66 1.32 -1 2 C-4.0625 2.625 -4.0625 2.625 -7 3 C-7.99 1.68 -8.98 0.36 -10 -1 C-6.18510326 -2.46726798 -3.70988378 -1.43336419 0 0 Z " fill="#7F551A" transform="translate(90,272)"/>
<path d="M0 0 C0.99 0 1.98 0 3 0 C3.66 2.97 4.32 5.94 5 9 C1.7457985 6.16569547 0.4793247 4.31392226 0 0 Z " fill="#805F3C" transform="translate(379,125)"/>
<path d="M0 0 C-3.6441774 2.4294516 -5.71241272 2.16179575 -10 2 C-6.64272747 -1.86086341 -4.42408585 -2.94939057 0 0 Z " fill="#815C24" transform="translate(258,468)"/>
<path d="M0 0 C2.97 0.495 2.97 0.495 6 1 C6 1.66 6 2.32 6 3 C2.04 3 -1.92 3 -6 3 C-6 2.67 -6 2.34 -6 2 C-4.02 2 -2.04 2 0 2 C0 1.34 0 0.68 0 0 Z " fill="#7E5A31" transform="translate(206,335)"/>
<path d="M0 0 C0.66 0.33 1.32 0.66 2 1 C1 3 0 5 -1 7 C-1.66 7 -2.32 7 -3 7 C-3.33 7.99 -3.66 8.98 -4 10 C-3.51421457 6.87709365 -3.0013988 4.00419641 -2 1 C-1.34 0.67 -0.68 0.34 0 0 Z " fill="#986C42" transform="translate(163,175)"/>
<path d="M0 0 C0.33 0.66 0.66 1.32 1 2 C0.06553465 4.03144641 -0.93224776 6.03533587 -2 8 C-2.99 7.34 -3.98 6.68 -5 6 C-4 3 -4 3 -2 1 C-1.34 0.67 -0.68 0.34 0 0 Z " fill="#9F6C3A" transform="translate(72,173)"/>
<path d="M0 0 C3.37503669 1.1858237 5.64722731 2.27573689 8 5 C5.36 4.67 2.72 4.34 0 4 C0 2.68 0 1.36 0 0 Z " fill="#7D5A2E" transform="translate(398,25)"/>
<path d="M0 0 C0.99 0 1.98 0 3 0 C3 4.29 3 8.58 3 13 C2.67 13 2.34 13 2 13 C1.93941406 12.39671875 1.87882812 11.7934375 1.81640625 11.171875 C1.69072266 9.97304688 1.69072266 9.97304688 1.5625 8.75 C1.48128906 7.96109375 1.40007812 7.1721875 1.31640625 6.359375 C1.02365007 4.17635361 0.57935581 2.1226818 0 0 Z " fill="#845B28" transform="translate(277,295)"/>
<path d="M0 0 C-0.66 1.98 -1.32 3.96 -2 6 C-3.32 5.34 -4.64 4.68 -6 4 C-2.25 0 -2.25 0 0 0 Z " fill="#875C30" transform="translate(146,133)"/>
<path d="M0 0 C0.33 0 0.66 0 1 0 C1 2.64 1 5.28 1 8 C-0.98 8.99 -0.98 8.99 -3 10 C-2.01 6.7 -1.02 3.4 0 0 Z " fill="#7C562D" transform="translate(419,64)"/>
<path d="M0 0 C4.68738665 0.90723613 9.34193744 1.9547267 14 3 C14 3.33 14 3.66 14 4 C8.32723489 4.29341888 5.00932754 4.00559652 0 1 C0 0.67 0 0.34 0 0 Z " fill="#7A5530" transform="translate(215,208)"/>
<path d="M0 0 C0 1.98 0 3.96 0 6 C-0.99 6.33 -1.98 6.66 -3 7 C-3.33 5.35 -3.66 3.7 -4 2 C-1 0 -1 0 0 0 Z " fill="#7A572E" transform="translate(381,119)"/>
<path d="M0 0 C-1.96382007 1.50559539 -3.78263366 2.89131683 -6 4 C-8.00800456 3.71887936 -10.01014051 3.38932033 -12 3 C-7.78372195 0.18914797 -4.97048208 -0.11045516 0 0 Z " fill="#795128" transform="translate(75,106)"/>
<path d="M0 0 C0 0.66 0 1.32 0 2 C-0.66 2 -1.32 2 -2 2 C-2 2.66 -2 3.32 -2 4 C-3.65 3.67 -5.3 3.34 -7 3 C-7 2.34 -7 1.68 -7 1 C-4 0 -4 0 0 0 Z " fill="#936A40" transform="translate(246,105)"/>
<path d="M0 0 C1.0625 1.8125 1.0625 1.8125 2 4 C1.67 4.99 1.34 5.98 1 7 C-0.32 6.34 -1.64 5.68 -3 5 C-1.125 1.125 -1.125 1.125 0 0 Z " fill="#865A2B" transform="translate(165,408)"/>
<path d="M0 0 C2.97903734 2.97903734 4 5.80285329 4 10 C3.34 10 2.68 10 2 10 C0.39644899 6.49223216 -0.22036864 3.85645121 0 0 Z " fill="#815930" transform="translate(115,313)"/>
<path d="M0 0 C2.97 0.495 2.97 0.495 6 1 C4.35 2.65 2.7 4.3 1 6 C1.33 4.68 1.66 3.36 2 2 C0.68 2.33 -0.64 2.66 -2 3 C-1.34 2.01 -0.68 1.02 0 0 Z " fill="#865C2F" transform="translate(246,193)"/>
<path d="M0 0 C0.99 0.33 1.98 0.66 3 1 C1.02 2.98 -0.96 4.96 -3 7 C-3.66 6.67 -4.32 6.34 -5 6 C-4.34 5.01 -3.68 4.02 -3 3 C-2.34 3 -1.68 3 -1 3 C-0.67 2.01 -0.34 1.02 0 0 Z " fill="#361E10" transform="translate(412,153)"/>
<path d="M0 0 C0.93423645 3.01031744 1.04449911 3.86650268 0 7 C-0.99 7 -1.98 7 -3 7 C-2.25 2.25 -2.25 2.25 0 0 Z " fill="#895A27" transform="translate(220,146)"/>
<path d="M0 0 C2 0.6875 2 0.6875 4 2.6875 C1.36 2.6875 -1.28 2.6875 -4 2.6875 C-4 2.0275 -4 1.3675 -4 0.6875 C-2 -0.3125 -2 -0.3125 0 0 Z " fill="#745029" transform="translate(188,335.3125)"/>
<path d="M0 0 C0.33 0.99 0.66 1.98 1 3 C-1.31 3 -3.62 3 -6 3 C-6 2.34 -6 1.68 -6 1 C-4 0 -4 0 0 0 Z " fill="#795832" transform="translate(365,335)"/>
<path d="M0 0 C4.75 0.75 4.75 0.75 7 3 C4.03 3 1.06 3 -2 3 C-1.34 2.67 -0.68 2.34 0 2 C0 1.34 0 0.68 0 0 Z " fill="#845C33" transform="translate(322,304)"/>
<path d="M0 0 C0.99 0.33 1.98 0.66 3 1 C3.6875 3.0625 3.6875 3.0625 4 5 C3.34 5 2.68 5 2 5 C1.67 5.66 1.34 6.32 1 7 C0.31292445 4.50935112 0 2.62113708 0 0 Z " fill="#7F5218" transform="translate(217,160)"/>
<path d="M0 0 C1 3 1 3 1 6 C-0.32 6 -1.64 6 -3 6 C-2.625 3.5625 -2.625 3.5625 -2 1 C-1.34 0.67 -0.68 0.34 0 0 Z " fill="#85511B" transform="translate(237,150)"/>
<path d="M0 0 C0.66 0.66 1.32 1.32 2 2 C1.34 3.32 0.68 4.64 0 6 C-0.99 5.67 -1.98 5.34 -3 5 C-2.625 3.0625 -2.625 3.0625 -2 1 C-1.34 0.67 -0.68 0.34 0 0 Z " fill="#A0784A" transform="translate(147,127)"/>
<path d="M0 0 C0.99 0.33 1.98 0.66 3 1 C0.25 5.875 0.25 5.875 -2 7 C-1.125 2.25 -1.125 2.25 0 0 Z " fill="#96642D" transform="translate(232,127)"/>
</svg>
